<svg xmlns="http://www.w3.org/2000/svg" xmlns:xlink="http://www.w3.org/1999/xlink" xml:space="preserve" viewBox="0 0 877.58716 904.93011">
  <defs>
    <mask id="b" maskUnits="userSpaceOnUse">
      <path fill="#fff" d="M-147.928-6.104H33.967v266.012h-181.895z"/>
      <path fill="#0a0a0a" d="M-5.93 21.813c8.423 5.118 14.46 13.238 17.258 22.734 1.86 9.037-.451 18.465-4.942 26.41-1.437 2.013-2.946 3.805-4.644 5.602l-1.484 1.64c-6.478 6.35-15.682 9.586-24.641 9.924-10.14-.508-18.672-4.444-25.875-11.563-6.935-8.3-9.717-16.886-9.402-27.664 1.249-10.36 6.58-18.612 14.402-25.336 11.75-8.54 26.711-8.542 39.328-1.747m-41.957 13.691c-4.61 6.91-5.311 13.85-4.371 22.055 2.214 8.835 5.287 14.464 13.125 19.25 7.746 4.46 15.781 5.208 24.586 3.102 7.588-3.116 13.51-8.185 17.289-15.477 2.875-7.129 3.369-14.237 1.183-21.64-3.51-7.975-9.78-13.713-17.433-17.736-13.19-5.101-25.87-.37-34.379 10.445"/>
    </mask>
    <mask id="a" maskUnits="userSpaceOnUse">
      <path fill="#fff" d="M-78.049-1.001h235.93V293.75h-235.93z"/>
      <path fill="#070707" d="m31.312 41.312 1.89 1.262c10.666 7.998 15.478 21.616 17.52 34.281.74 11.337-4.465 23.742-11.41 32.457L37.437 112C28.171 122.082 14.518 127.22 1 127.812c-11.658-.318-21.822-5.146-30.688-12.5l-1.957-1.617c-8.427-7.674-13.404-18.86-14.36-30.11-.574-13.476 2.636-25.673 11.317-36.273 18.673-18.644 44.35-21.163 66-6m-62.168 14.48c-7.193 9.892-8.404 20.652-6.832 32.52 2.774 11.785 10.755 20.313 20.664 26.844 9.844 4.872 21.888 4.46 32.274 1.531 9.15-3.24 16.149-7.868 21.062-16.375 5.209-11.085 6.994-22.838 3.824-34.91-3.857-9.78-11.72-17.174-20.824-22.09-19.717-8.3-36.627-3.625-50.168 12.48"/>
      <path fill="#050505" d="M6.312 63.312c4.877 2.392 7.81 5.716 11 10 1.411 4.234 1.89 7.863.129 12.094-2.749 4.828-5.766 8.165-11.129 9.906-4.156.854-7.441.816-11.246-1.176-3.777-2.682-7.176-5.386-8.754-9.824-.642-5.298-.677-9.567 1.625-14.437 5.577-6.018 10.296-7.856 18.375-6.563"/>
    </mask>
  </defs>
  <path fill="#fefefe" d="m315.49901 203.6641 2.305-.006q2.403-.001 4.808.01c2.413.011 4.826.001 7.24-.012 11.639-.013 22.924.155 33.385 5.836l2.032 1.067a272 272 0 0 1 6.093 3.37l1.87 1.06c24.355 14.098 41.448 36.902 48.708 64.106 4.236 17.756.353 30.814-7.578 46.835-1.378 2.88-2.745 5.766-4.112 8.652a618 618 0 0 1-2.612 5.421c-3.192 6.557-5.567 12.602-6.276 19.927l-.305 2.726c-.513 7.936 1.367 12.18 6.016 18.476 1.523 2.124 2.95 4.3 4.379 6.489 5.793 8.873 11.75 17.572 18.097 26.059 6.35 8.513 12.231 17.216 17.813 26.25l1.835 2.965a1841 1841 0 0 1 5.977 9.785l1.887 3.082c9.406 15.64 15.473 30.718 15.488 49.105l.037 2.303c.021 8.087-1.764 14.734-5.6 21.885l-1.043 1.947c-3.817 6.796-8.766 12.435-13.99 18.176-8.915 9.814-16.438 19.144-22.187 31.183-6.76 14.035-15.642 26.692-25.803 38.475-3.84 4.49-7.351 9.242-10.917 13.95-2.91 3.84-5.864 7.618-8.934 11.331-10.035 12.136-10.035 12.136-13.983 26.628.389 3.652 1.796 6.583 3.483 9.81l1.071 2.085c6.216 11.517 15.756 20.56 25.022 29.633a95 95 0 0 1 5.97 6.532c3.273 3.842 6.92 7.207 10.624 10.625q2.973 2.761 5.941 5.527 2.19 2.035 4.388 4.058a603 603 0 0 1 6.734 6.352l2.16 1.969c1.851 1.792 3.445 3.426 4.84 5.594-.031 3.632-.031 3.632-1 7-1.76 13.733 3.66 26.779 7.864 39.647l.804 2.528.707 2.173c1.98 8.41 2.039 17.314 2.562 25.906l.258 4.16q.27 4.36.534 8.717.334 5.47.676 10.941c1.056 16.97 1.985 33.935 2.595 50.928-4.223-1.318-8.091-2.923-12.043-4.907l-3.474-1.738-3.67-1.855-3.808-1.914a1139 1139 0 0 1-22.983-11.897c-7.306-3.876-14.71-7.547-22.116-11.227a886 886 0 0 1-20.824-10.744c-5.982-3.167-12.02-6.208-18.082-9.218-6.839-3.396-13.633-6.854-20.375-10.438a740 740 0 0 0-18.536-9.52 486 486 0 0 1-6.151-3.125c-4.74-2.436-9.333-4.631-14.407-6.277-5.312-1.885-9.871-3.703-13.531-8.14-4.08-8.902-5.625-18.68-7.31-28.265-.84-4.549-1.992-8.933-3.315-13.36q-.589-2.066-1.172-4.133l-.588-2.064c-1.452-5.142-2.847-10.301-4.242-15.46a1151 1151 0 0 0-4.135-14.914c-7.622-27.003-11.962-54.44-13.43-82.455l-.195-3.498-.14-3.11c-.841-4.868-4.027-7.447-7.473-10.741-5.546-6.216-9.503-12.025-12-20l-1-2.91c-1.67-5.963-2.045-12.197-2.625-18.34l-.196-2.057c-2.464-26.392-4.628-53.633 12.57-75.756 3.832-4.564 7.845-8.964 11.876-13.351 7.158-7.794 13.929-15.914 20.457-24.243 8.45-10.66 17.82-20.905 29.32-28.304 7.648-6.003 11.975-13.782 16.41-22.29l1.733-3.257a936 936 0 0 0 4.455-8.492l1.183-2.188c1.199-2.66.71-4.058-.183-6.812-2.385-4.854-5.185-9.337-10-12-6.087-1.184-12.365-.1-18.45.695-3.577.427-7.073.525-10.675.555l-3.258.078c-2.617-.328-2.617-.328-4.336-1.453-5.966-8.731-7.466-21.603-9.494-31.753-1.615-9.985-1.615-9.985-7.049-17.997l-2.426-1.125-2.449-1.188-1.863-.812c.4-6.657 2.44-12.261 4.726-18.5 2.817-7.742 4.4-14.665 4.711-22.875.299-7.732 1.94-14.324 4.563-21.625a459 459 0 0 0 2.25-6.688l1.015-2.95c2.105-9.64-.086-16.717-3.828-25.675a603 603 0 0 1-2.566-6.3l-1.159-2.775c-.818-3-.753-4.691.288-7.612 2.37-1.13 4.444-1.891 6.937-2.625 6.696-2.217 12.43-5.154 18.375-8.938 10.996-6.977 21.458-12.779 34.824-12.703z"/>
  <path fill="#fefefe" d="M519.36201 287.9301c2.774 2.156 5.296 4.424 7.808 6.879 1.97 1.906 3.964 3.532 6.192 5.12l2.71-1.425c6.215-3.219 12.204-6.184 19.009-7.969 2.377-.583 2.377-.583 4.945-1.66 4.453-1.262 8.604-1.287 13.21-1.258l2.811.015c20.526.344 39.725 6.527 54.862 20.759 7.938 8.216 13.095 16.62 16.453 27.539l.742 2.398c4.41 16.733-1.065 33.177-7.989 48.33-3.237 7.374-5.134 14.578-6.69 22.46-4.759 22.437-11.6 38.71-27.657 55.265-3.35 3.546-3.646 5.436-3.58 10.3.29 3.76 1.313 7.22 2.424 10.81l.62 2.17c6.752 22.483 32.423 32.765 51.15 43.84 38.924 23.122 38.924 23.122 44.882 42.337 5.219 20.56 2.489 43.242-5.8 62.578l-1.045 2.474a175 175 0 0 1-2.063 4.653c-7.907 18.443-8.205 40.196-9.932 59.935q-.285 3.252-.578 6.504c-3.108 34.725-4.84 69.071-4.484 103.946-13.221 6.662-26.46 13.272-39.832 19.629a3470 3470 0 0 0-25.293 12.183q-4.261 2.07-8.524 4.137l-2.127 1.033c-10.547 5.117-21.106 10.207-31.664 15.3l-12.612 6.087-9.046 4.366a5852 5852 0 0 0-16.673 8.07c-26.146 12.714-26.146 12.714-39.23 18.195 1.512-27.175 5.323-54.984 17.708-79.433a159 159 0 0 0 3.355-7.137c8.094-18.185 17.292-36.12 31.063-50.676 5.765-8.467 5.475-18.563 5.437-28.442v-2.237c-.055-16.22-2.8-31.304-6.562-47.075l-.809-3.434c-1.008-4.265-2.03-8.526-3.076-12.782-3.536-14.403-6.047-28.953-8.365-43.597l-.532-3.308c-.876-5.701-1.413-11.112-1.218-16.88-6.101 5.155-11.725 10.675-17.313 16.376-5.874 5.937-11.71 11.606-18.304 16.738-2.475 1.96-4.762 4.047-7.07 6.2-6.174 5.636-12.915 10.515-19.644 15.46a600 600 0 0 0-5.67 4.227c1.498 3.422 3.475 5.825 6 8.562l2.438 2.664 2.563 2.774c6.589 7.144 12.956 14.388 19 22l1.53 1.917c11.517 14.46 22.367 29.372 32.22 45.02l1.231 1.952c3.532 5.716 5.944 10.285 5.019 17.11-1.146 1.707-1.146 1.707-2.649 3.513-3.873 4.974-6.632 10.38-9.476 15.988l-1.551 3.012a1429 1429 0 0 0-8.324 16.488h-3l-.742-2.352c-4.041-11.677-10.54-21.619-19.617-30.082-1.823-1.74-3.44-3.589-5.079-5.504-2.968-3.446-6.103-6.653-9.375-9.812-1.804-1.856-3.469-3.741-5.145-5.71-4.248-4.867-8.803-9.4-13.397-13.94a2126 2126 0 0 1-4.646-4.61q-6.591-6.554-13.197-13.092-4.064-4.024-8.116-8.061a1079 1079 0 0 0-3.06-3.03 223 223 0 0 1-18.626-20.807l-1.757-2.165c-4.955-6.14-11.68-15.375-10.868-23.613 3.602-12.81 12.427-23.073 20.625-33.222l2.418-3.031a563 563 0 0 1 6.582-7.97l2.516-3.077c7.007-8.466 14.623-16.2 22.542-23.818 8.398-8.194 12.705-16.452 17.442-27.104 4.163-9.176 8.538-18.189 13.312-27.063l1.559-2.931c4.88-8.94 10.788-16.53 18.066-23.631l1.708-1.688a208 208 0 0 1 11.097-10.148c2.456-2.15 4.709-4.479 6.992-6.809 1.772-1.736 3.616-3.323 5.516-4.918 3.619-3.122 6.886-6.494 10.125-10l1.444-1.55c5.39-5.916 6.184-9.746 6.068-17.672-.92-8.535-4.864-16.387-9.387-23.59-1.784 3.983-2.545 7.765-3.25 12.062-1.436 7.86-3.883 15.775-9.434 21.75-3.409 1.748-6.706 1.545-10.441 1.438l-2.324-.033c-4.642-.09-9.196-.432-13.805-.99-3.895-.322-7.777-.342-11.684-.352l-2.263-.014c-3.197.01-5.746.12-8.8 1.139.557-5.202 1.849-9.646 3.813-14.5 8.841-23.086 9.61-42.18 1.188-65.5a756 756 0 0 1-2.113-6.088 306 306 0 0 0-1.809-5.065c-3.006-10.73-3.484-21.58-3.453-32.66v-2.131c.033-10.533.672-20.095 4.375-30.056l1.027-3.153c3.776-10.44 11.075-21.431 20.973-26.847 9.22-3.52 17.37-2.525 26 2"/>
  <path fill="#fdfdfd" d="M456.32501.05009654c2.662 1.14999996 5.126 2.49999996 7.638 3.94999996l3.384 1.944 3.64 2.11q1.892 1.091 3.785 2.1800005 4.861 2.802 9.72 5.614 4.29 2.481 8.589 4.953 8.034 4.63 16.063 9.27 8.107 4.682 16.218 9.359l9.75 5.625 61.75 35.625 3.25 1.875 6.495 3.748q8.161 4.709 16.325 9.412a5511 5511 0 0 1 31.305 18.152003 2685 2685 0 0 0 26.125 15.063 2965 2965 0 0 1 29.067 16.783c10.524 6.154 21.087 12.24 31.65 18.326q8.144 4.693 16.283 9.39l6.5 3.75 42.255 24.378 21.607 12.467 12.1 6.984 3.08 1.777 2.689 1.552c3.252 1.871 6.511 3.731 9.769 5.593v242c-9-2-9-2-12.93-3.07-14.287-3.89-27.354-3.402-42.07-1.93v-205l-6-2a94 94 0 0 1-4.922-2.73l-2.816-1.66-3.012-1.798-6.492-3.828-3.382-1.998c-5.397-3.175-10.824-6.3-16.251-9.424l-6.555-3.777-3.288-1.894q-8.142-4.693-16.282-9.391l-6.5-3.75-91-52.5-3.25-1.875-6.496-3.748q-8.16-4.71-16.325-9.412a5514 5514 0 0 1-31.304-18.153 2684 2684 0 0 0-26.125-15.062 2968 2968 0 0 1-29.067-16.784 4054 4054 0 0 0-21.808-12.654003l-3.224-1.858a28069 28069 0 0 0-15.375-8.855l-7.224-4.16-5.116-2.943-3.12-1.797-2.752-1.583a115 115 0 0 1-5.314-3.366c-3.983.332-6.852 1.847-10.262 3.851l-3.1 1.807-3.326 1.967q-1.742 1.02-3.486 2.037-3.621 2.115-7.238 4.237c-5.511 3.231-11.051 6.414-16.588 9.6l-6.5 3.75-16.25 9.376003-6.496 3.748q-8.16 4.709-16.325 9.412a5514 5514 0 0 0-31.304 18.152c-9.27 5.422-18.584 10.765-27.914 16.082a2812 2812 0 0 0-27.278 15.764c-10.524 6.154-21.087 12.24-31.651 18.326q-8.143 4.693-16.282 9.39l-6.5 3.75-3.25 1.876-61.75 35.625-9.704 5.596a4541 4541 0 0 0-15.21 8.8q-3.585 2.084-7.172 4.163-2.529 1.47-5.053 2.945l-3.1 1.797-2.72 1.583c-2.541 1.366-2.541 1.366-7.541 3.366v152l-16.999996-2c-3.433-.142-6.77-.242-10.192-.196l-2.55.01c-2.607.01-5.214.035-7.82.061l-5.405.028c-4.344.021-8.689.056-13.033.097-.21-23.495-.37-46.991-.466-70.487-.046-10.91-.11-21.82-.213-32.729q-.136-14.262-.168-28.524c-.012-5.036-.039-10.07-.105-15.105q-.088-7.109-.066-14.218-.001-2.609-.055-5.217c-.248-13.154-.248-13.154 3.042-17.054 2.302-1.563 4.45-2.648 7.031-3.666l2.936-1.744 2.568-1.412 2.955-1.637 3.104-1.707c8.511-4.724 16.976-9.515 25.374996-14.437a3963 3963 0 0 1 24.937-14.5l3.273-1.887 6.57-3.785q8.143-4.694 16.282-9.39l6.5-3.75 3.25-1.876 65-37.5 6.496-3.748q8.16-4.709 16.324-9.412a5511 5511 0 0 0 31.305-18.152003c9.27-5.422 18.583-10.765 27.914-16.082a2813 2813 0 0 0 27.278-15.764c10.524-6.154 21.087-12.24 31.65-18.326q8.144-4.693 16.283-9.39l6.5-3.75 3.25-1.876 13.005-7.503 6.449-3.72a34633 34633 0 0 1 22.382-12.906l5.053-2.9120005 3.1-1.787 2.72-1.567a87 87 0 0 0 5.12-3.233c2.421-1.24699996 2.421-1.24699996 4.384-1.12699996"/>
  <path fill="#00af4b" d="M457.07301 121.3321c4.833 2.348 9.426 5.033 14.039 7.785l6.492 3.828c1.116.66 2.232 1.32 3.382 1.998 5.397 3.176 10.823 6.3 16.25 9.424l9.844 5.672q8.142 4.693 16.282 9.39l6.5 3.75 143 82.5c1.072.62 2.145 1.238 3.25 1.876l6.495 3.748q8.16 4.709 16.325 9.412a8340 8340 0 0 1 32.555 18.84l2.961 1.72 5.215 3.04 2.699 1.615 1.977.953c2.255 1.185 4.126 2.343 6.023 4.047.848 3.238 1.093 5.23 1.022 8.473l.04 2.579c.034 2.853.011 5.702-.012 8.555q.019 3.067.047 6.136c.041 5.558.031 11.116.01 16.675-.013 4.646 0 9.293.011 13.94a5391 5391 0 0 1-.02 32.917c-.04 11.295-.017 22.59.038 33.885q.066 14.568.036 29.135c-.01 5.794-.01 11.587.024 17.38.03 5.46.016 10.917-.032 16.375-.01 1.994 0 3.987.016 5.98.118 11.796-.994 20.03-7.965 29.752-6.444 9.361-8.978 20.661-9.653 31.843-.326 5.15-1.135 8.838-3.562 13.375-4.517-1.492-6.215-5.1-8.563-8.938-13.173-20.531-34.519-32.903-54.972-45.215-26.68-16.063-26.68-16.063-33.465-22.847.306-3.64 2.148-5.581 4.5-8.25 13.907-17.022 19.31-36.855 24.105-57.903 1.786-7.676 3.745-14.984 7.332-22.035 3.371-7.093 5.28-14.2 7.063-21.812l.687-2.469c3.273-12.909 2.285-27.957-1.687-40.531l-1.031-3.41c-7.579-23.12-23.347-42.232-44.97-53.59l-2.468-1.297c-23.46-11.448-54.387-15.338-79.531-7.703l-3.164 1.105c-5.535 1.746-9.701.083-14.649-2.48-12.815-6.599-27.125-7.976-41.125-4.063-14.524 5.302-25.694 14.452-34.062 27.438-2.902-2.902-3.163-6.43-4.063-10.313-5.2-20.89-14.874-40.361-28.937-56.687l-1.785-2.223c-14.8-17.816-37.606-30.28-59.215-37.777 2.661-2.84 5.173-4.869 8.578-6.742l2.73-1.52 2.942-1.613a5083 5083 0 0 0 6.285-3.504l3.258-1.817c5-2.813 9.948-5.713 14.894-8.617 6.49-3.804 12.99-7.586 19.524-11.312l1.842-1.051q4.551-2.594 9.108-5.175c4.971-2.823 9.917-5.65 14.733-8.731l2.094-1.33a365 365 0 0 0 5.13-3.377c2.882-1.211 2.882-1.211 5.593-.809"/>
  <path fill="#fdfdfd" d="m0 0 2.9.013c23.49.37 41.814 9.701 58.303 26.19 5.336 5.721 9.393 12.254 13.11 19.11l1.84 3.269c4.422 9.438 4.715 18.724 4.722 28.98l.009 2.082c-.006 12.147-1.672 23.1-7.384 33.918l-1.068 2.071c-2.608 4.95-5.448 9.443-9.12 13.68l-1.796 2.19c-7.197 8.507-15.853 14.847-25.203 20.81 4.4 14.434 28.305 25.1 40.25 32.714l1.912 1.22q2.458 1.558 4.927 3.1a55 55 0 0 1 6.04 4.712c2.787 2.665 2.787 2.665 6.87 2.254l.297-2.31c.996-6.877 2.51-12.537 5.704-18.69l1.207-2.579c4.95-9.987 12.968-19.895 22.793-25.421l3 1q.458 2.412.913 4.824.405 2.146.818 4.288c.712 3.74 1.37 7.471 1.89 11.243 1.879 13.151 5.412 24.59 16.46 32.996 3.856 3.314 4.262 7.02 4.77 11.926l.39 3.748.384 3.912.406 3.807c.38 3.75.689 7.497.969 11.256l.326 3.664c.449 8.224.449 8.224-1.542 11.077-1.815 1.383-3.586 2.308-5.66 3.259a537 537 0 0 0-4.437 2.414l-2.344 1.25c-3.964 2.259-7.565 4.987-11.218 7.71-34.066 24.971-34.066 24.971-48.125 26.626l-3.625.437c-11.65-.265-21.281-10.015-29.375-17.437l-2.47-2.184c-21.119-19.67-30.646-50.781-38.124-77.797a395 395 0 0 0-4.031-13.52l-.611-1.934q-.881-2.783-1.764-5.565Q2.15 170.626 1 166.938l-.988-3.149c-.7-2.476-.7-2.476-.7-4.476l-1.624-.043c-21.175-1.29-41.539-12.107-55.747-27.532C-71.057 116.087-77.054 99.682-77 79.5l-.049-3.62c-.006-11.08 1.948-20.92 7.111-30.755l1.057-2.058c2.85-5.41 6.17-10.146 10.193-14.754l1.418-1.813C-43.506 9.229-21.73-.131 0 0" mask="url(#a)" transform="translate(77.049014 439.6171)"/>
  <path fill="#fdfdfd" d="M0 0c15.983 7.992 25.81 19.842 31.742 36.559 1.435 4.86 1.184 9.72 1.188 14.75l.037 2.921c.018 9.111-1.83 16.284-5.975 24.391l-1.084 2.129c-2.528 4.841-5.065 9.129-9.166 12.809l-1.879 1.714c-10.464 8.808-21.4 12.895-34.699 14.68-3.476.278-3.476.278-5.422 2.606a101 101 0 0 0-1.699 6.289l-.471 1.946c-.513 2.128-1.015 4.259-1.517 6.39l-1.079 4.49c-1.753 7.336-3.431 14.683-4.964 22.068-6.426 30.904-15.486 60.152-30.02 88.317l-1.031 2.013c-2.906 5.418-6.272 10.84-11.742 13.897-9.599 2.286-17.043.237-25.477-4.41l-3.344-1.727c-8.857-4.69-16.304-10.495-23.656-17.273l-2.566-2.352c-2.24-2.145-4.338-4.363-6.434-6.648l-1.916-2.032c-6.36-7.724-5.934-15.265-5.584-24.718q.04-2.211.07-4.422c.446-25.914 5.26-50.593 17.43-73.828 8.023 3.258 13.049 14.39 16.266 22.003 1.885 5.128 3.116 10.48 4.482 15.765 2.758 10.517 6.194 20.761 13.252 29.232h1l.445-2.938c3.685-22.688 14.16-43.5 27.555-62.062l3.383-4.723c3.188-4.439 6.397-8.862 9.617-13.277-3.105-3.742-6.096-7.3-9.937-10.313-8.476-7.262-13.572-17.215-17.063-27.687-.291-4.683-.278-9.372-.312-14.063l-.088-3.896c-.053-7.908.715-14.01 4.4-21.041l1.57-3.032C-58.578-1.053-28.357-12.546 0 0" mask="url(#b)" transform="translate(844.62001 500.3711)"/>
  <path fill="#00af4b" d="M227.36201 251.9301c3 1 3 1 4.75 4.062 3.02 6.293-.295 14.375-2.25 20.625-2.116 6.875-3.532 12.946-3.75 20.188-.41 8.253-2.92 15.386-5.75 23.125a558 558 0 0 0-2.25 7.25c-.889 2.929-1.782 5.846-2.75 8.75-.829 9.103-.411 16.435 5 24 2.662 3.119 5.299 6.15 9 8 .93 2.597.93 2.597 1.875 6.062l1.058 3.84a315 315 0 0 1 2.04 8.164c3.652 15.436 7.327 27.823 21.21 36.453 4.443 2.336 8.7 3.652 13.692 4.106l2.367.226 1.758.149c-3.214 3.306-6.5 6.28-10.125 9.125-8.525 6.918-16.056 14.541-22.785 23.21-5.618 7.162-11.592 14.058-17.715 20.79-4.66 5.133-9.032 10.473-13.375 15.875l-2.133 2.636c-3.577 4.442-7.063 8.911-10.348 13.575-1.931 2.274-4.153 3.983-6.52 5.789l-1.874-8.875-.528-2.492-.527-2.5-.546-2.567a178 178 0 0 1-.96-5.07c-1.121-6.3-3.064-11.89-5.627-17.746l-1.196-2.759c-5.567-12.709-5.567-12.709-14.248-23.285-4.133-3.767-4.946-6.934-5.215-12.47-.039-2.786 0-5.566.04-8.351v-4.614c0-4.161.034-8.321.075-12.482.038-4.353.041-8.707.048-13.06.02-8.238.068-16.476.128-24.713.067-9.38.1-18.762.13-28.143.063-19.291.169-38.582.302-57.873l10.686-6.166 3.625-2.091c6.461-3.728 12.922-7.455 19.389-11.173l3.072-1.767q3.075-1.77 6.15-3.536c4.68-2.695 9.343-5.405 13.938-8.244l2.13-1.313a279 279 0 0 0 3.738-2.362c1.612-1.004 1.612-1.004 4.273-2.348z"/>
</svg>
