<svg xmlns="http://www.w3.org/2000/svg" xmlns:xlink="http://www.w3.org/1999/xlink" xml:space="preserve" viewBox="0 0 2363 2363"><defs><mask id="k" maskUnits="userSpaceOnUse"><path fill="#fff" d="M-24.687-1H6v45.218h-30.687z"/><path fill="#040404" d="M-9.5 15.375c3.972.71 5.672 1.797 8.5 4.625C.723 23.446.372 27.224 0 31c-1.624 3.635-2.661 4.774-6 7-3.437.438-3.437.438-7 0-4.104-3.887-4.775-6.978-5.375-12.375.598-5.777 2.816-9.168 8.875-10.25"/></mask><mask id="l" maskUnits="userSpaceOnUse"><path fill="#fff" d="M-20.25-1.253h31.986V33.18h-31.985Z"/><path fill="#070707" d="M-1.164 5.414C1 6 1 6 3.562 7.938 5.636 12.355 5.748 16.206 5 21c-1.438 3.063-1.438 3.063-4 5-3.058.943-5.81 1.317-9 1-2.552-1.85-3.61-3.22-5-6a73 73 0 0 1-.188-4.875l-.043-2.617c.248-2.7.757-4.246 2.23-6.508 3.751-2.5 5.523-2.218 9.837-1.586"/></mask><mask id="m" maskUnits="userSpaceOnUse"><path fill="#fff" d="M-19.708-1.399H10V33.31h-29.708z"/><path fill="#090909" d="M-1 5c3.44 2.535 3.94 3.759 5 8h-17c1-5 1-5 2.625-6.812C-7.03 4.515-4.69 4.538-1 5"/></mask><mask id="j" maskUnits="userSpaceOnUse"><path fill="#fff" d="M-18.416-1.185h29.87v45.549h-29.87z"/><path fill="#060606" d="M-3.437 4.375C.45 5.082 1.635 5.907 4 9c1.734 3.467 1.477 7.21 1 11-2.927 5.463-2.927 5.463-6 7-3.68.4-5.349.51-8.312-1.812-2.888-3.744-3.095-7.32-3.028-11.891.78-5.276 3.604-7.992 8.903-8.922"/></mask><mask id="e" maskUnits="userSpaceOnUse"><path fill="#fff" d="M-20-1H80.005v152H-20Z"/><path fill="#0a0a0a" d="M30 35h1q1.076 11.102 2.136 22.205.362 3.774.728 7.547.525 5.436 1.042 10.873l.332 3.388c.537 5.693.883 11.269.762 16.987H24c-.127-8.794.267-17.272 1.313-26l.403-3.501C26.952 55.97 28.416 45.48 30 35"/></mask><mask id="f" maskUnits="userSpaceOnUse"><path fill="#fff" d="M-20-1.12H80.017V151H-20Z"/><path fill="#090909" d="M30 35h1c1.839 20.323 3.565 40.644 5 61H23c1.042-13.582 2.418-27.104 4.063-40.625l.266-2.204C28.923 40.021 28.923 40.021 30 35"/></mask><mask id="d" maskUnits="userSpaceOnUse"><path fill="#fff" d="M-1-1h89.404v152H-1Z"/><path fill="#0c0c0c" d="M39 26c7.5 0 7.5 0 11 3 2.58 7.74 2.197 20.43-1 28-3.45 2.58-5.326 2-10 2z"/></mask><mask id="i" maskUnits="userSpaceOnUse"><path fill="#fff" d="M-1-1h86.417v152H-1Z"/><path fill="#080808" d="M39 26c8 0 8 0 10.471 1.602 1.98 3.107 2.017 5.1 1.99 8.773l-.012 3.734L51.375 44l-.004 3.89c-.1 10.605-.1 10.605-2.371 14.11-3.541 2.53-5.218 2-10 2z"/></mask><mask id="h" maskUnits="userSpaceOnUse"><use xlink:href="#a"/><path fill="#0a0a0a" d="M30 37h1c1.237 11.85 2.36 23.711 3.42 35.579q.204 2.288.412 4.575.295 3.262.582 6.526l.342 3.835C35.976 90.67 36 93.837 36 97H23l.441-3.797c.5-4.498.89-9 1.256-13.512.674-8.254 1.417-16.437 2.795-24.609.624-3.789 1.134-7.588 1.633-11.394l.508-3.864z"/><path d="M30 37h1l1 11-1-2h-2z"/></mask><mask id="c" maskUnits="userSpaceOnUse"><path fill="#fff" d="M-147.928-6.104H33.967v266.012h-181.895Z"/><path fill="#0a0a0a" d="M-5.93 21.813c8.423 5.118 14.46 13.238 17.258 22.734 1.86 9.037-.451 18.465-4.942 26.41-1.437 2.013-2.946 3.805-4.644 5.602l-1.484 1.64c-6.478 6.35-15.682 9.586-24.641 9.924-10.14-.508-18.672-4.444-25.875-11.563-6.935-8.3-9.717-16.886-9.402-27.664 1.249-10.36 6.58-18.612 14.402-25.336 11.75-8.54 26.711-8.542 39.328-1.747m-41.957 13.691c-4.61 6.91-5.311 13.85-4.371 22.055 2.214 8.835 5.287 14.464 13.125 19.25 7.746 4.46 15.781 5.208 24.586 3.102 7.588-3.116 13.51-8.185 17.289-15.477 2.875-7.129 3.369-14.237 1.183-21.64-3.51-7.975-9.78-13.713-17.433-17.736-13.19-5.101-25.87-.37-34.379 10.445"/></mask><mask id="g" maskUnits="userSpaceOnUse"><use xlink:href="#a"/><path fill="#080808" d="M30 39h1l2.216 25.441C35.13 86.421 35.13 86.421 36 97H23c2.727-34.478 2.727-34.478 4.625-47.562l.372-2.57c.855-5.572.855-5.572 2.003-7.868"/></mask><mask id="b" maskUnits="userSpaceOnUse"><path fill="#fff" d="M-78.049-1.001h235.93V293.75h-235.93Z"/><path fill="#070707" d="m31.312 41.312 1.89 1.262c10.666 7.998 15.478 21.616 17.52 34.281.74 11.337-4.465 23.742-11.41 32.457L37.437 112C28.171 122.082 14.518 127.22 1 127.812c-11.658-.318-21.822-5.146-30.688-12.5l-1.957-1.617c-8.427-7.674-13.404-18.86-14.36-30.11-.574-13.476 2.636-25.673 11.317-36.273 18.673-18.644 44.35-21.163 66-6m-62.168 14.48c-7.193 9.892-8.404 20.652-6.832 32.52 2.774 11.785 10.755 20.313 20.664 26.844 9.844 4.872 21.888 4.46 32.274 1.531 9.15-3.24 16.149-7.868 21.062-16.375 5.209-11.085 6.994-22.838 3.824-34.91-3.857-9.78-11.72-17.174-20.824-22.09-19.717-8.3-36.627-3.625-50.168 12.48"/><path fill="#050505" d="M6.312 63.312c4.877 2.392 7.81 5.716 11 10 1.411 4.234 1.89 7.863.129 12.094-2.749 4.828-5.766 8.165-11.129 9.906-4.156.854-7.441.816-11.246-1.176-3.777-2.682-7.176-5.386-8.754-9.824-.642-5.298-.677-9.567 1.625-14.437 5.577-6.018 10.296-7.856 18.375-6.563"/></mask><path id="a" fill="#fff" d="M-20-1H80v152H-20Z"/></defs><g/><path fill="none" d="M-3.383 4.223h2363v2363h-2363z"/><path fill="#fefefe" d="m1030.754 648.957 2.305-.006q2.403-.001 4.808.01c2.413.011 4.826.001 7.24-.012 11.639-.013 22.924.155 33.385 5.836l2.032 1.067a272 272 0 0 1 6.093 3.37l1.87 1.06c24.355 14.098 41.448 36.902 48.708 64.106 4.236 17.756.353 30.814-7.578 46.835-1.378 2.88-2.745 5.766-4.112 8.652a618 618 0 0 1-2.612 5.421c-3.192 6.557-5.567 12.602-6.276 19.927l-.305 2.726c-.513 7.936 1.367 12.18 6.016 18.476 1.523 2.124 2.95 4.3 4.379 6.489 5.793 8.873 11.75 17.572 18.097 26.059 6.35 8.513 12.231 17.216 17.813 26.25l1.835 2.965a1841 1841 0 0 1 5.977 9.785l1.887 3.082c9.406 15.64 15.473 30.718 15.488 49.105l.037 2.303c.021 8.087-1.764 14.734-5.6 21.885l-1.043 1.947c-3.817 6.796-8.766 12.435-13.99 18.176-8.915 9.814-16.438 19.144-22.187 31.183-6.76 14.035-15.642 26.692-25.803 38.475-3.84 4.49-7.351 9.242-10.917 13.95-2.91 3.84-5.864 7.618-8.934 11.331-10.035 12.136-10.035 12.136-13.983 26.628.389 3.652 1.796 6.583 3.483 9.81l1.071 2.085c6.216 11.517 15.756 20.56 25.022 29.633a95 95 0 0 1 5.97 6.532c3.273 3.842 6.92 7.207 10.624 10.625q2.973 2.761 5.941 5.527 2.19 2.035 4.388 4.058a603 603 0 0 1 6.734 6.352l2.16 1.969c1.851 1.792 3.445 3.426 4.84 5.594-.031 3.632-.031 3.632-1 7-1.76 13.733 3.66 26.779 7.864 39.647l.804 2.528.707 2.173c1.98 8.41 2.039 17.314 2.562 25.906l.258 4.16q.27 4.36.534 8.717.334 5.47.676 10.941c1.056 16.97 1.985 33.935 2.595 50.928-4.223-1.318-8.091-2.923-12.043-4.907l-3.474-1.738-3.67-1.855-3.808-1.914a1139 1139 0 0 1-22.983-11.897c-7.306-3.876-14.71-7.547-22.116-11.227a886 886 0 0 1-20.824-10.744c-5.982-3.167-12.02-6.208-18.082-9.218-6.839-3.396-13.633-6.854-20.375-10.438a740 740 0 0 0-18.536-9.52 486 486 0 0 1-6.151-3.125c-4.74-2.436-9.333-4.631-14.407-6.277-5.312-1.885-9.871-3.703-13.531-8.14-4.08-8.902-5.625-18.68-7.31-28.265-.84-4.549-1.992-8.933-3.315-13.36q-.589-2.066-1.172-4.133l-.588-2.064c-1.452-5.142-2.847-10.301-4.242-15.46a1151 1151 0 0 0-4.135-14.914c-7.622-27.003-11.962-54.44-13.43-82.455l-.195-3.498-.14-3.11c-.841-4.868-4.027-7.447-7.473-10.741-5.546-6.216-9.503-12.025-12-20l-1-2.91c-1.67-5.963-2.045-12.197-2.625-18.34l-.196-2.057c-2.464-26.392-4.628-53.633 12.57-75.756 3.832-4.564 7.845-8.964 11.876-13.351 7.158-7.794 13.929-15.914 20.457-24.243 8.45-10.66 17.82-20.905 29.32-28.304 7.648-6.003 11.975-13.782 16.41-22.29l1.733-3.257a936 936 0 0 0 4.455-8.492l1.183-2.188c1.199-2.66.71-4.058-.183-6.812-2.385-4.854-5.185-9.337-10-12-6.087-1.184-12.365-.1-18.45.695-3.577.427-7.073.525-10.675.555l-3.258.078c-2.617-.328-2.617-.328-4.336-1.453-5.966-8.731-7.466-21.603-9.494-31.753-1.615-9.985-1.615-9.985-7.049-17.997l-2.426-1.125-2.449-1.188-1.863-.812c.4-6.657 2.44-12.261 4.726-18.5 2.817-7.742 4.4-14.665 4.711-22.875.299-7.732 1.94-14.324 4.563-21.625a459 459 0 0 0 2.25-6.688l1.015-2.95c2.105-9.64-.086-16.717-3.828-25.675a603 603 0 0 1-2.566-6.3l-1.159-2.775c-.818-3-.753-4.691.288-7.612 2.37-1.13 4.444-1.891 6.937-2.625 6.696-2.217 12.43-5.154 18.375-8.938 10.996-6.977 21.458-12.779 34.824-12.703z"/><path fill="#fefefe" d="M1234.617 733.223c2.774 2.156 5.296 4.424 7.808 6.879 1.97 1.906 3.964 3.532 6.192 5.12l2.71-1.425c6.215-3.219 12.204-6.184 19.009-7.969 2.377-.583 2.377-.583 4.945-1.66 4.453-1.262 8.604-1.287 13.21-1.258l2.811.015c20.526.344 39.725 6.527 54.862 20.759 7.938 8.216 13.095 16.62 16.453 27.539l.742 2.398c4.41 16.733-1.065 33.177-7.989 48.33-3.237 7.374-5.134 14.578-6.69 22.46-4.759 22.437-11.6 38.71-27.657 55.265-3.35 3.546-3.646 5.436-3.58 10.3.29 3.76 1.313 7.22 2.424 10.81l.62 2.17c6.752 22.483 32.423 32.765 51.15 43.84 38.924 23.122 38.924 23.122 44.882 42.337 5.219 20.56 2.489 43.242-5.8 62.578l-1.045 2.474a175 175 0 0 1-2.063 4.653c-7.907 18.443-8.205 40.196-9.932 59.935q-.285 3.252-.578 6.504c-3.108 34.725-4.84 69.071-4.484 103.946-13.221 6.662-26.46 13.272-39.832 19.629a3470 3470 0 0 0-25.293 12.183q-4.261 2.07-8.524 4.137l-2.127 1.033c-10.547 5.117-21.106 10.207-31.664 15.3l-12.612 6.087-9.046 4.366a5852 5852 0 0 0-16.673 8.07c-26.146 12.714-26.146 12.714-39.23 18.195 1.512-27.175 5.323-54.984 17.708-79.433a159 159 0 0 0 3.355-7.137c8.094-18.185 17.292-36.12 31.063-50.676 5.765-8.467 5.475-18.563 5.437-28.442v-2.237c-.055-16.22-2.8-31.304-6.562-47.075l-.809-3.434c-1.008-4.265-2.03-8.526-3.076-12.782-3.536-14.403-6.047-28.953-8.365-43.597l-.532-3.308c-.876-5.701-1.413-11.112-1.218-16.88-6.101 5.155-11.725 10.675-17.313 16.376-5.874 5.937-11.71 11.606-18.304 16.738-2.475 1.96-4.762 4.047-7.07 6.2-6.174 5.636-12.915 10.515-19.644 15.46a600 600 0 0 0-5.67 4.227c1.498 3.422 3.475 5.825 6 8.562l2.438 2.664 2.563 2.774c6.589 7.144 12.956 14.388 19 22l1.53 1.917c11.517 14.46 22.367 29.372 32.22 45.02l1.231 1.952c3.532 5.716 5.944 10.285 5.019 17.11-1.146 1.707-1.146 1.707-2.649 3.513-3.873 4.974-6.632 10.38-9.476 15.988l-1.551 3.012a1429 1429 0 0 0-8.324 16.488h-3l-.742-2.352c-4.041-11.677-10.54-21.619-19.617-30.082-1.823-1.74-3.44-3.589-5.079-5.504-2.968-3.446-6.103-6.653-9.375-9.812-1.804-1.856-3.469-3.741-5.145-5.71-4.248-4.867-8.803-9.4-13.397-13.94a2126 2126 0 0 1-4.646-4.61q-6.591-6.554-13.197-13.092-4.064-4.024-8.116-8.061a1079 1079 0 0 0-3.06-3.03 223 223 0 0 1-18.626-20.807l-1.757-2.165c-4.955-6.14-11.68-15.375-10.868-23.613 3.602-12.81 12.427-23.073 20.625-33.222l2.418-3.031a563 563 0 0 1 6.582-7.97l2.516-3.077c7.007-8.466 14.623-16.2 22.542-23.818 8.398-8.194 12.705-16.452 17.442-27.104 4.163-9.176 8.538-18.189 13.312-27.063l1.559-2.931c4.88-8.94 10.788-16.53 18.066-23.631l1.708-1.688a208 208 0 0 1 11.097-10.148c2.456-2.15 4.709-4.479 6.992-6.809 1.772-1.736 3.616-3.323 5.516-4.918 3.619-3.122 6.886-6.494 10.125-10l1.444-1.55c5.39-5.916 6.184-9.746 6.068-17.672-.92-8.535-4.864-16.387-9.387-23.59-1.784 3.983-2.545 7.765-3.25 12.062-1.436 7.86-3.883 15.775-9.434 21.75-3.409 1.748-6.706 1.545-10.441 1.438l-2.324-.033c-4.642-.09-9.196-.432-13.805-.99-3.895-.322-7.777-.342-11.684-.352l-2.263-.014c-3.197.01-5.746.12-8.8 1.139.557-5.202 1.849-9.646 3.813-14.5 8.841-23.086 9.61-42.18 1.188-65.5a756 756 0 0 1-2.113-6.088 306 306 0 0 0-1.809-5.065c-3.006-10.73-3.484-21.58-3.453-32.66v-2.131c.033-10.533.672-20.095 4.375-30.056l1.027-3.153c3.776-10.44 11.075-21.431 20.973-26.847 9.22-3.52 17.37-2.525 26 2"/><path fill="#fdfdfd" d="M1171.58 445.343c2.662 1.15 5.126 2.5 7.638 3.95l3.384 1.944 3.64 2.11q1.892 1.091 3.785 2.18 4.861 2.802 9.72 5.614 4.29 2.481 8.589 4.953 8.034 4.63 16.063 9.27 8.107 4.682 16.218 9.359l9.75 5.625 61.75 35.625 3.25 1.875 6.495 3.748q8.161 4.709 16.325 9.412a5511 5511 0 0 1 31.305 18.152 2685 2685 0 0 0 26.125 15.063 2965 2965 0 0 1 29.067 16.783c10.524 6.154 21.087 12.24 31.65 18.326q8.144 4.693 16.283 9.39l6.5 3.75 42.255 24.378 21.607 12.467 12.1 6.984 3.08 1.777 2.689 1.552c3.252 1.871 6.511 3.731 9.769 5.593v242c-9-2-9-2-12.93-3.07-14.287-3.89-27.354-3.402-42.07-1.93v-205l-6-2a94 94 0 0 1-4.922-2.73l-2.816-1.66-3.012-1.798-6.492-3.828-3.382-1.998c-5.397-3.175-10.824-6.3-16.251-9.424l-6.555-3.777-3.288-1.894q-8.142-4.693-16.282-9.391l-6.5-3.75-91-52.5-3.25-1.875-6.496-3.748q-8.16-4.71-16.325-9.412a5514 5514 0 0 1-31.304-18.153 2684 2684 0 0 0-26.125-15.062 2968 2968 0 0 1-29.067-16.784 4054 4054 0 0 0-21.808-12.654l-3.224-1.858a28069 28069 0 0 0-15.375-8.855l-7.224-4.16-5.116-2.943-3.12-1.797-2.752-1.583a115 115 0 0 1-5.314-3.366c-3.983.332-6.852 1.847-10.262 3.851l-3.1 1.807-3.326 1.967q-1.742 1.02-3.486 2.037-3.621 2.115-7.238 4.237c-5.511 3.231-11.051 6.414-16.588 9.6l-6.5 3.75-16.25 9.376-6.496 3.748q-8.16 4.709-16.325 9.412a5514 5514 0 0 0-31.304 18.152c-9.27 5.422-18.584 10.765-27.914 16.082a2812 2812 0 0 0-27.278 15.764c-10.524 6.154-21.087 12.24-31.651 18.326q-8.143 4.693-16.282 9.39l-6.5 3.75-3.25 1.876-61.75 35.625-9.704 5.596a4541 4541 0 0 0-15.21 8.8q-3.585 2.084-7.172 4.163-2.529 1.47-5.053 2.945l-3.1 1.797-2.72 1.583c-2.541 1.366-2.541 1.366-7.541 3.366v152l-17-2c-3.433-.142-6.77-.242-10.192-.196l-2.55.01c-2.607.01-5.214.035-7.82.061l-5.405.028c-4.344.021-8.689.056-13.033.097-.21-23.495-.37-46.991-.466-70.487-.046-10.91-.11-21.82-.213-32.729q-.136-14.262-.168-28.524c-.012-5.036-.039-10.07-.105-15.105q-.088-7.109-.066-14.218-.001-2.609-.055-5.217c-.248-13.154-.248-13.154 3.042-17.054 2.302-1.563 4.45-2.648 7.031-3.666l2.936-1.744 2.568-1.412 2.955-1.637 3.104-1.707c8.511-4.724 16.976-9.515 25.375-14.437a3963 3963 0 0 1 24.937-14.5l3.273-1.887 6.57-3.785q8.143-4.694 16.282-9.39l6.5-3.75 3.25-1.876 65-37.5 6.496-3.748q8.16-4.709 16.324-9.412a5511 5511 0 0 0 31.305-18.152c9.27-5.422 18.583-10.765 27.914-16.082a2813 2813 0 0 0 27.278-15.764c10.524-6.154 21.087-12.24 31.65-18.326q8.144-4.693 16.283-9.39l6.5-3.75 3.25-1.876 13.005-7.503 6.449-3.72a34633 34633 0 0 1 22.382-12.906l5.053-2.912 3.1-1.787 2.72-1.567a87 87 0 0 0 5.12-3.233c2.421-1.247 2.421-1.247 4.384-1.127"/><path fill="#00af4b" d="M1172.328 566.625c4.833 2.348 9.426 5.033 14.039 7.785l6.492 3.828c1.116.66 2.232 1.32 3.382 1.998 5.397 3.176 10.823 6.3 16.25 9.424l9.844 5.672q8.142 4.693 16.282 9.39l6.5 3.75 143 82.5c1.072.62 2.145 1.238 3.25 1.876l6.495 3.748q8.16 4.709 16.325 9.412a8340 8340 0 0 1 32.555 18.84l2.961 1.72 5.215 3.04 2.699 1.615 1.977.953c2.255 1.185 4.126 2.343 6.023 4.047.848 3.238 1.093 5.23 1.022 8.473l.04 2.579c.034 2.853.011 5.702-.012 8.555q.019 3.067.047 6.136c.041 5.558.031 11.116.01 16.675-.013 4.646 0 9.293.011 13.94a5391 5391 0 0 1-.02 32.917c-.04 11.295-.017 22.59.038 33.885q.066 14.568.036 29.135c-.01 5.794-.01 11.587.024 17.38.03 5.46.016 10.917-.032 16.375-.01 1.994 0 3.987.016 5.98.118 11.796-.994 20.03-7.965 29.752-6.444 9.361-8.978 20.661-9.653 31.843-.326 5.15-1.135 8.838-3.562 13.375-4.517-1.492-6.215-5.1-8.563-8.938-13.173-20.531-34.519-32.903-54.972-45.215-26.68-16.063-26.68-16.063-33.465-22.847.306-3.64 2.148-5.581 4.5-8.25 13.907-17.022 19.31-36.855 24.105-57.903 1.786-7.676 3.745-14.984 7.332-22.035 3.371-7.093 5.28-14.2 7.063-21.812l.687-2.469c3.273-12.909 2.285-27.957-1.687-40.531l-1.031-3.41c-7.579-23.12-23.347-42.232-44.97-53.59l-2.468-1.297c-23.46-11.448-54.387-15.338-79.531-7.703l-3.164 1.105c-5.535 1.746-9.701.083-14.649-2.48-12.815-6.599-27.125-7.976-41.125-4.063-14.524 5.302-25.694 14.452-34.062 27.438-2.902-2.902-3.163-6.43-4.063-10.313-5.2-20.89-14.874-40.361-28.937-56.687l-1.785-2.223c-14.8-17.816-37.606-30.28-59.215-37.777 2.661-2.84 5.173-4.869 8.578-6.742l2.73-1.52 2.942-1.613a5083 5083 0 0 0 6.285-3.504l3.258-1.817c5-2.813 9.948-5.713 14.894-8.617 6.49-3.804 12.99-7.586 19.524-11.312l1.842-1.051q4.551-2.594 9.108-5.175c4.971-2.823 9.917-5.65 14.733-8.731l2.094-1.33a365 365 0 0 0 5.13-3.377c2.882-1.211 2.882-1.211 5.593-.809"/><path fill="#fdfdfd" d="m0 0 2.9.013c23.49.37 41.814 9.701 58.303 26.19 5.336 5.721 9.393 12.254 13.11 19.11l1.84 3.269c4.422 9.438 4.715 18.724 4.722 28.98l.009 2.082c-.006 12.147-1.672 23.1-7.384 33.918l-1.068 2.071c-2.608 4.95-5.448 9.443-9.12 13.68l-1.796 2.19c-7.197 8.507-15.853 14.847-25.203 20.81 4.4 14.434 28.305 25.1 40.25 32.714l1.912 1.22q2.458 1.558 4.927 3.1a55 55 0 0 1 6.04 4.712c2.787 2.665 2.787 2.665 6.87 2.254l.297-2.31c.996-6.877 2.51-12.537 5.704-18.69l1.207-2.579c4.95-9.987 12.968-19.895 22.793-25.421l3 1q.458 2.412.913 4.824.405 2.146.818 4.288c.712 3.74 1.37 7.471 1.89 11.243 1.879 13.151 5.412 24.59 16.46 32.996 3.856 3.314 4.262 7.02 4.77 11.926l.39 3.748.384 3.912.406 3.807c.38 3.75.689 7.497.969 11.256l.326 3.664c.449 8.224.449 8.224-1.542 11.077-1.815 1.383-3.586 2.308-5.66 3.259a537 537 0 0 0-4.437 2.414l-2.344 1.25c-3.964 2.259-7.565 4.987-11.218 7.71-34.066 24.971-34.066 24.971-48.125 26.626l-3.625.437c-11.65-.265-21.281-10.015-29.375-17.437l-2.47-2.184c-21.119-19.67-30.646-50.781-38.124-77.797a395 395 0 0 0-4.031-13.52l-.611-1.934q-.881-2.783-1.764-5.565Q2.15 170.626 1 166.938l-.988-3.149c-.7-2.476-.7-2.476-.7-4.476l-1.624-.043c-21.175-1.29-41.539-12.107-55.747-27.532C-71.057 116.087-77.054 99.682-77 79.5l-.049-3.62c-.006-11.08 1.948-20.92 7.111-30.755l1.057-2.058c2.85-5.41 6.17-10.146 10.193-14.754l1.418-1.813C-43.506 9.229-21.73-.131 0 0" mask="url(#b)" transform="translate(792.304 884.91)"/><path fill="#fff" d="M1116.617 1434.223h36c2 8.668 3.772 17.11 5.062 25.875l.487 3.199c1.249 8.296 2.361 16.608 3.45 24.926l.704-3.789 3.728-20.085q.81-4.373 1.624-8.743l.498-2.694q.716-3.846 1.447-7.69l.53-2.834.529-2.752.474-2.493c.467-1.92.467-1.92 1.467-2.92 2.27-.094 4.543-.118 6.815-.114h2.158c2.364 0 4.729.01 7.093.016h4.906c4.312 0 8.624.014 12.937.025q6.594.014 13.19.02 12.95.016 25.9.049.832 10 1.655 20.001l.561 6.781c.937 11.27 1.849 22.533 2.464 33.826.268 4.81.71 9.551 1.32 14.33a619 619 0 0 1 2 18.062l.105-2.151c1.018-19.887 3.238-39.458 5.99-59.172.913-6.595 1.701-13.202 2.459-19.817.458-3.956.953-7.908 1.447-11.86h41c1.43 2.86 1.41 5.54 1.683 8.726l.182 2.085q.291 3.406.572 6.814l.2 2.346a1364 1364 0 0 1 2.716 38.896l.217 3.777c.06 1.087.12 2.173.18 3.292.25 3.067.74 6.032 1.25 9.064q.205 2.586.316 5.18l.127 2.812.12 2.883.13 2.953q.159 3.585.307 7.172c1.012-3.038 1.21-5.341 1.36-8.528.849-16.163 2.245-32.202 4.077-48.285l.313-2.79q.459-4.053.933-8.104l.266-2.337c1.044-8.72 2.602-17.262 4.05-25.956h38c0 10.123 0 10.123-.623 15.188l-.417 3.463-.463 3.704-.73 6.018q-.39 3.203-.786 6.404c-.831 6.744-1.647 13.49-2.462 20.236l-.562 4.646a3846 3846 0 0 0-3.976 34.138l-.24 2.149q-1.036 9.235-2.054 18.472c-.41 3.735-.826 7.469-1.24 11.203l-.357 3.278c-.792 7.106-1.91 14.024-3.09 21.1h-49c-2.373-12.463-4.71-24.846-6.624-37.374l-.617-3.957a867 867 0 0 1-3.306-23.546c-.354-2.446-.785-4.747-1.452-7.122l-2.59 18.636q-2.59 18.629-5.153 37.261l-.46 3.341-.396 2.876c-.458 3.297-.93 6.591-1.401 9.886h-49c-2.25-12.375-2.25-12.375-2.765-16.85l-.361-3.087-.37-3.26-.41-3.533q-.663-5.73-1.317-11.462l-.926-8.02q-.967-8.382-1.929-16.765-1.352-11.783-2.712-23.562l-1.892-16.422-.68-5.91q-.637-5.53-1.271-11.061l-.377-3.267a1083 1083 0 0 1-1.99-18.801h-1l-.63 2.508c-2.043 7.919-4.353 15.71-6.87 23.492a370 370 0 0 0-6.403 22.02c-1.606 6.026-3.598 11.944-5.548 17.867-3.709 11.385-5.996 21.727-6.06 33.753l-.055 3.783c-.054 3.942-.088 7.884-.121 11.827a4830 4830 0 0 1-.104 8.074c-.087 6.559-.147 13.117-.209 19.676h-37l.027-11.555c-.015-3.79-.042-7.58-.07-11.37a744 744 0 0 1 0-7.76c.076-18.554-2.28-34.66-7.955-52.315a635 635 0 0 1-1.211-4.047 465 465 0 0 0-2.79-8.953c-3.136-9.974-5.952-20.005-8.62-30.114-1.75-6.617-3.612-13.16-5.75-19.664-.63-2.222-.63-2.222-.63-5.222z"/><path fill="#fdfdfd" d="M0 0c15.983 7.992 25.81 19.842 31.742 36.559 1.435 4.86 1.184 9.72 1.188 14.75l.037 2.921c.018 9.111-1.83 16.284-5.975 24.391l-1.084 2.129c-2.528 4.841-5.065 9.129-9.166 12.809l-1.879 1.714c-10.464 8.808-21.4 12.895-34.699 14.68-3.476.278-3.476.278-5.422 2.606a101 101 0 0 0-1.699 6.289l-.471 1.946c-.513 2.128-1.015 4.259-1.517 6.39l-1.079 4.49c-1.753 7.336-3.431 14.683-4.964 22.068-6.426 30.904-15.486 60.152-30.02 88.317l-1.031 2.013c-2.906 5.418-6.272 10.84-11.742 13.897-9.599 2.286-17.043.237-25.477-4.41l-3.344-1.727c-8.857-4.69-16.304-10.495-23.656-17.273l-2.566-2.352c-2.24-2.145-4.338-4.363-6.434-6.648l-1.916-2.032c-6.36-7.724-5.934-15.265-5.584-24.718q.04-2.211.07-4.422c.446-25.914 5.26-50.593 17.43-73.828 8.023 3.258 13.049 14.39 16.266 22.003 1.885 5.128 3.116 10.48 4.482 15.765 2.758 10.517 6.194 20.761 13.252 29.232h1l.445-2.938c3.685-22.688 14.16-43.5 27.555-62.062l3.383-4.723c3.188-4.439 6.397-8.862 9.617-13.277-3.105-3.742-6.096-7.3-9.937-10.313-8.476-7.262-13.572-17.215-17.063-27.687-.291-4.683-.278-9.372-.312-14.063l-.088-3.896c-.053-7.908.715-14.01 4.4-21.041l1.57-3.032C-58.578-1.053-28.357-12.546 0 0" mask="url(#c)" transform="translate(1559.875 945.664)"/><path fill="#fff" d="M1142.617 1624.223h51c4.568 26.27 4.568 26.27 5.625 35.75.761 6.67 1.674 13.242 2.974 19.83.53 3.201.545 6.184.4 9.42h2l.114-2.551c.482-9.102 1.325-18.14 2.324-27.2l.37-3.403c.71-6.28 1.58-12.493 2.713-18.71.667-4.356 1.041-8.752 1.48-13.136h52v150h-35l-1-88-5 40a2620 2620 0 0 1-3.25 23.125l-.774 5.37c-.94 6.512-1.895 13.015-2.976 19.505h-25l-1.61-11.485-4.25-30.312-.467-3.34c-1.866-13.292-3.775-26.576-5.673-39.863l-1 85h-35z"/><path fill="#00af4b" d="M942.617 697.223c3 1 3 1 4.75 4.062 3.02 6.293-.295 14.375-2.25 20.625-2.116 6.875-3.532 12.946-3.75 20.188-.41 8.253-2.92 15.386-5.75 23.125a558 558 0 0 0-2.25 7.25c-.889 2.929-1.782 5.846-2.75 8.75-.829 9.103-.411 16.435 5 24 2.662 3.119 5.299 6.15 9 8 .93 2.597.93 2.597 1.875 6.062l1.058 3.84a315 315 0 0 1 2.04 8.164c3.652 15.436 7.327 27.823 21.21 36.453 4.443 2.336 8.7 3.652 13.692 4.106l2.367.226 1.758.149c-3.214 3.306-6.5 6.28-10.125 9.125-8.525 6.918-16.056 14.541-22.785 23.21-5.618 7.162-11.592 14.058-17.715 20.79-4.66 5.133-9.032 10.473-13.375 15.875l-2.133 2.636c-3.577 4.442-7.063 8.911-10.348 13.575-1.931 2.274-4.153 3.983-6.52 5.789l-1.874-8.875-.528-2.492-.527-2.5-.546-2.567a178 178 0 0 1-.96-5.07c-1.121-6.3-3.064-11.89-5.627-17.746l-1.196-2.759c-5.567-12.709-5.567-12.709-14.248-23.285-4.133-3.767-4.946-6.934-5.215-12.47-.039-2.786 0-5.566.04-8.351v-4.614c0-4.161.034-8.321.075-12.482.038-4.353.041-8.707.048-13.06.02-8.238.068-16.476.128-24.713.067-9.38.1-18.762.13-28.143.063-19.291.169-38.582.302-57.873l10.686-6.166 3.625-2.091c6.461-3.728 12.922-7.455 19.389-11.173l3.072-1.767q3.075-1.77 6.15-3.536c4.68-2.695 9.343-5.405 13.938-8.244l2.13-1.313a279 279 0 0 0 3.738-2.362c1.612-1.004 1.612-1.004 4.273-2.348z"/><path fill="#fff" d="M0 0c68.595 0 68.595 0 77.93 8.824C82.102 13.23 84.262 17.207 86 23l.555 1.85c1.063 5.14.717 10.547.757 15.775l.088 3.738c.06 8.604-.635 16.442-6.588 23.075C77.037 69.536 73.143 70.808 69 72c.592.23 1.183.461 1.793.7C77.49 75.462 81.935 78.902 86 85c1.085 3.254 1.12 5.609 1.114 9.032v3.76l-.016 4.063-.005 4.158q-.006 5.467-.024 10.934-.014 5.58-.02 11.16c-.01 7.298-.03 14.595-.049 21.893H51l-.113-13.422q-.058-5.3-.123-10.6c-.044-3.73-.084-7.458-.11-11.187q-.04-5.388-.117-10.776-.025-2.055-.035-4.11a526 526 0 0 0-.07-5.76l-.033-3.31c-.47-3.342-.863-4.597-3.399-6.835l-8-2v68H0z" mask="url(#d)" transform="translate(886.617 1624.223)"/><path fill="#fff" d="M1369.617 1434.223h33l20 61 1-61h33v150h-35c-6.83-22.232-6.83-22.232-9.563-32.188-2.668-9.645-5.562-19.227-8.437-28.812l-1 62h-33zm60 190h33c3.128 8.745 6.197 17.451 8.867 26.347 1.764 5.689 3.677 11.327 5.584 16.968l.865 2.571.764 2.257c1.373 4.265 2.632 8.565 3.92 12.857l1-61h33v150h-34c-4.494-11.234-4.494-11.234-5.676-15.672l-.81-2.981-.827-3.097c-2.59-9.5-5.399-18.9-8.466-28.257l-.838-2.571-.738-2.232c-.695-2.358-1.163-4.78-1.645-7.19l-1 62h-33zm-498-190h39l1 53 7-24q2.481-7.507 5-15l4-14h37a81 81 0 0 1-2.965 10.948l-1.223 3.561-.652 1.887c-1.146 3.323-2.275 6.653-3.406 9.98a2516 2516 0 0 1-4.34 12.66 1379 1379 0 0 0-3.504 10.268 434 434 0 0 1-1.343 3.891c-3.416 9.75-3.416 9.75-2.567 19.805l.66 2.794.758 2.534.854 2.892.915 3.03.947 3.188q1.425 4.783 2.866 9.562l1.62 5.418q1.483 4.948 2.974 9.894a1988 1988 0 0 1 4.641 15.717c1.612 5.503 3.317 10.971 5.066 16.432.699 2.539.699 2.539.699 5.539h-41q-2.754-11.157-5.5-22.315-.934-3.795-1.87-7.588-1.347-5.459-2.689-10.917l-.846-3.42-.788-3.214-.693-2.813c-.649-2.888-1.127-5.813-1.614-8.733l-1 59h-39z"/><path fill="#fff" d="M0 0h58l3 24 2 10c1.659 9.362 2.751 18.807 3.86 28.247.673 5.593 1.536 11.083 2.69 16.597 2.092 10.01 3.118 20.256 4.31 30.403.67 5.57 1.527 11.039 2.676 16.531.609 2.917 1.116 5.843 1.589 8.785l.508 3.066C79.08 141.73 79 145.874 79 150H39c-.659-9.222-1.102-17.845-1-27H24l-2 27h-41c.617-8.632 1.27-17.125 2.375-25.687l.399-3.151a488 488 0 0 1 2.664-18.037C-12.06 94.121-11.036 85.066-10 76c1.227-10.73 2.578-21.41 4.352-32.066C-3.248 29.37-1.757 14.64 0 0" mask="url(#e)" transform="translate(1542.617 1624.223)"/><path fill="#fff" d="M0 0q11.123-.034 22.244-.052 5.163-.007 10.328-.023 5.931-.018 11.862-.023l3.762-.015h3.458l3.062-.007C57 0 57 0 58 1c1.901 9.281 2.755 18.843 3.859 28.244.674 5.594 1.536 11.085 2.69 16.6 2.093 10.01 3.119 20.256 4.31 30.403.674 5.593 1.537 11.083 2.69 16.597 2.093 10.01 3.119 20.256 4.31 30.403.66 5.48 1.487 10.825 2.756 16.2.525 3.48.385 7.033.385 10.553H39c-.71-9.218-1.093-17.83-1-27H23l.063 6.75c.063 6.88-.484 13.303-1.063 20.25h-41c0-4.324.023-8.066.55-12.266l.364-2.913.398-3.071.413-3.247a501 501 0 0 1 2.712-18.378c1.628-9.754 2.7-19.57 3.822-29.392 1.033-9.02 2.16-18 3.667-26.954 1.206-7.28 2.062-14.595 2.897-21.926C-2.955 21.213-1.467 10.61 0 0" mask="url(#f)" transform="translate(1343.617 1624.223)"/><path fill="#fff" d="M0 0h57c5.395 31.02 5.395 31.02 6.715 41.766l.392 3.193q.382 3.145.753 6.29c.673 5.593 1.536 11.082 2.69 16.595 2.092 10.01 3.118 20.256 4.31 30.403.672 5.58 1.533 11.056 2.685 16.557 1.586 7.653 2.515 15.455 3.58 23.196l.508 3.688C79 145 79 145 79 150H39l-2-27H23l.125 5.625C23.29 136.071 22.098 142.313 21 150h-40c1.142-19.422 1.142-19.422 2.438-26.625q.404-2.41.804-4.82l.394-2.337c1.442-8.782 2.416-17.616 3.301-26.468a297 297 0 0 1 2.5-18.875c1.737-10.508 2.951-21.066 4.184-31.644.628-5.35 1.28-10.697 1.941-16.044l.348-2.87C-2.245 13.496-1.133 6.798 0 0" mask="url(#g)" transform="translate(1482.617 1434.223)"/><path fill="#fff" d="M0 0h58l2 17c.728 3.645.728 3.645 1.5 7.281.684 3.721 1.084 7.46 1.5 11.219.603 5.437 1.357 10.749 2.504 16.102 2.089 10.1 3.154 20.41 4.355 30.645.674 5.593 1.537 11.083 2.69 16.597 2.135 10.212 3.169 20.668 4.398 31.018l.37 3.052.326 2.749c.312 2.484.312 2.484 1.357 5.337v9H39c-.61-9.157-1.113-17.884-1-27H23l.063 6.75c.063 6.88-.484 13.303-1.063 20.25h-41c1.106-15.482 1.106-15.482 2.313-22.25 1.564-9.211 2.63-18.47 3.687-27.75 1.302-11.402 2.792-22.736 4.684-34.056C-6.903 57.25-5.938 48.51-5.062 39.75c.737-7.381 1.756-14.682 3.009-21.993C-1.051 11.807-.552 6.068 0 0" mask="url(#h)" transform="translate(845.617 1434.223)"/><path fill="#fff" d="M0 0c67.886 0 67.886 0 76.71 8.684 6.36 7.708 7.757 16.655 7.688 26.382l.01 2.785q.002 2.89-.017 5.78c-.016 2.928 0 5.854.02 8.781q-.004 2.828-.013 5.654l.019 2.615c-.095 8.328-1.886 15.608-7.675 21.815C66.045 91.73 52.603 89 39 89v61H0z" mask="url(#i)" transform="translate(791.617 1624.223)"/><path fill="#fff" d="M1063.617 1624.223h66v30h-26v28h24v29h-24v32h28v31h-68zm-78 0h69c0 35.114 0 35.114-7.056 51.719-1.207 2.915-2.13 5.876-3.007 8.906-1.69 5.667-3.554 11.269-5.437 16.875-2.246 6.69-4.416 13.392-6.457 20.148-2.227 7.156-4.657 14.247-7.043 21.352h29v31h-73c0-17.315.285-26.307 6.05-41.381 1.605-4.428 2.83-8.955 4.075-13.494 1.653-5.932 3.382-11.798 5.375-17.625 2.304-6.742 4.26-13.556 6.186-20.415 2.568-9.096 5.428-18.085 8.314-27.085h-26zm41-190h85v30h-23v120h-39v-119h-23zm252 190h39v150h-39z"/><path fill="#fff" d="M0 0c2.5 1.5 2.5 1.5 4 3l1-2h5q.149 7.098.22 14.197.03 2.412.082 4.824c.049 2.319.071 4.636.089 6.956l.062 2.16C10.455 34.233 9.201 37.076 6 41c-4.395 2.844-9.937 2.558-15 2-3.023-1.385-4.669-2.669-7-5v-4c2.25-.25 2.25-.25 5 0l1.875 2c2.075 2.328 2.075 2.328 5.625 2.563 3.612-.25 3.612-.25 5.938-2.813C4.329 32.948 4.329 32.948 4 29l-1.691.973C-1.69 31.752-5.72 31.687-10 31c-3.401-2.55-5.421-5.088-7-9-.652-5.87-.827-11.224 1.688-16.625C-10.362.29-6.937-.661 0 0" mask="url(#j)" transform="translate(1521.617 1883.223)"/><path fill="#fff" d="M0 0h5v42H0l-1-2-2.062 1.5C-6.719 43.367-8.933 43.428-13 43c-3.96-1.398-7.09-3.17-9.305-6.863-1.823-5.603-1.873-12.69.035-18.274 2.036-3.299 4.73-5.415 8.27-6.863 5.681-.831 7.847-.092 13 3z" mask="url(#k)" transform="translate(994.617 1872.223)"/><path fill="#fff" d="M0 0c4.387 2.278 7.257 4.909 10 9 .987 5.424 1.324 11.378-1.21 16.398C6.241 28.463 3.693 30.465 0 32c-5.585.45-9.232.251-14-3-4.493-5.828-5.877-10.77-5-18 1.588-4.295 3.998-7.676 8-10C-7.272-.243-3.872-.529 0 0" mask="url(#l)" transform="translate(1095.617 1883.223)"/><path fill="#fff" d="M0 0c4.05 2.42 7.42 5.488 9 10v8h-22l2 7c3.69 1.23 7.17 1.732 11 1 2.201-2.44 2.201-2.44 4-5 2.75-.312 2.75-.312 5 0-1.241 4.964-2.761 7.139-7 10-3.225 1.613-6.503 1.454-10 1-4.856-1.766-7.76-4.352-10-9-.934-5.665-1.37-11.516 1.465-16.656C-11.951.994-7.221-1.416 0 0" mask="url(#m)" transform="translate(1297.617 1883.223)"/><path fill="#fff" d="M820.617 1883.223c3.394 1.234 5.324 2.017 7.375 5 .625 2 .625 2 .625 5h-6l-1-3c-2.287-1.144-3.593-1.104-6.125-1.063l-3.875.062-1 5 2.449.551 3.238.762 3.2.738c4.1 1.25 7.085 2.922 10.113 5.95.5 3.312.5 3.312 0 7-2.626 3.164-6.024 5.782-10.172 6.238-5.806.167-9.317-.178-13.828-4.239-1.782-2.673-2-3.737-2-7 2.812-.312 2.812-.312 6 0l1.375 2.5 1.625 2.5c3.446.67 6.816.592 10-1 .655-2.527.655-2.527 1-5l-2.633-.48c-12.268-2.484-12.268-2.484-16.367-7.52-.688-3-.688-3 0-6 4.973-5.89 8.586-6.698 16-6zm747 1h6l1 25c8.287.959 8.287.959 11.03-1.689 1.081-2.576 1.397-4.505 1.482-7.296l.107-2.832.068-2.933.104-2.98q.123-3.636.209-7.27h6v30h-5l-1-3-1.313 1.437c-2.533 2.345-4.666 2.56-8.062 2.875-4.263-.367-5.678-1.28-8.625-4.312-2.006-3.213-2.237-5.666-2.196-9.422l.02-3.106.051-3.222c.01-1.08.018-2.158.027-3.27q.035-3.99.098-7.98m-209.934-1.399c3.058.63 4.8 2.2 6.934 4.399 1.33 2.662 1.113 4.687 1.098 7.664 0 1.121-.01 2.243-.01 3.398-.01 1.176-.017 2.352-.025 3.563 0 1.183-.01 2.367-.015 3.586q-.017 4.395-.048 8.789h-5l-1-25c-8.287-.96-8.287-.96-11.031 1.688-1.08 2.577-1.396 4.505-1.481 7.296l-.108 2.832-.068 2.934-.103 2.98a719 719 0 0 0-.21 7.27h-6v-30h5l1 3 2-2c3.377-2.251 5.117-2.593 9.067-2.399m-446.066 1.399h5l.06 2.08c.095 3.098.205 6.196.315 9.295.03 1.08.062 2.16.094 3.273l.117 3.125c.03.953.063 1.906.095 2.888.104 2.528.104 2.528 2.319 4.339 3.533.23 6.614.042 10-1 .986-5.123 1.31-10.178 1.562-15.375l.131-2.52q.157-3.053.307-6.105h5v30h-5l-1-2-2.063 1.5c-3.679 1.878-5.846 2.002-9.937 1.5-5.539-3.077-5.539-3.077-7-6a114 114 0 0 1-.098-5.664c0-1.122.01-2.243.01-3.399.01-1.175.017-2.351.025-3.562 0-1.184.01-2.367.014-3.586q.018-4.395.049-8.79m551-.999c3.818 1.697 5.493 3.14 7 7 .227 2.657.227 2.657.195 5.64-.01 1.07-.013 2.14-.02 3.243-.017 1.11-.034 2.222-.05 3.367l-.028 3.414q-.036 4.168-.098 8.336h-5l-.06-2.08c-.095-3.099-.205-6.197-.315-9.295-.03-1.08-.062-2.16-.094-3.274l-.117-3.125-.095-2.888c-.104-2.527-.104-2.527-2.319-4.338-4.06-.472-4.06-.472-8 0-2.73 2.945-3.39 5.011-3.512 8.984l-.107 2.832-.068 2.934-.104 2.98a719 719 0 0 0-.209 7.27h-5v-30h5l1 2 2.063-1.5c3.64-1.859 5.892-1.934 9.937-1.5zm-597-8h6v9h6v5h-6v20h6v5q-2.156.118-4.313.187l-2.426.106c-2.261-.293-2.261-.293-3.884-1.492-1.843-2.41-1.722-3.895-1.67-6.907l.029-2.978.076-3.104.04-3.138q.055-3.838.147-7.674h-5v-5h5zm322 0h5v9h6v4h-6v21h6v5c-7.505.369-7.505.369-9.61-1.2-1.86-2.41-1.736-3.885-1.683-6.906l.029-2.978.076-3.104.04-3.138q.055-3.838.147-7.674h-5v-5h5zm62 8v6l-9 2c-.77 3.076-1.17 5.444-1.317 8.547l-.126 2.558-.12 2.645-.13 2.691q-.159 3.279-.307 6.559h-6v-30h6l1 3 2.187-2c3.029-2.154 4.21-2.412 7.813-2m153 1h5v30h-5zm-366 0h5v30h-5zm366-12h5v7h-5zm-366 0h5v7h-5z"/></svg>