<?xml version="1.0" encoding="UTF-8"?>
<svg version="1.1" xmlns="http://www.w3.org/2000/svg" width="2363" height="2363">
<path d="M0 0 C779.79 0 1559.58 0 2363 0 C2363 779.79 2363 1559.58 2363 2363 C1583.21 2363 803.42 2363 0 2363 C0 1583.21 0 803.42 0 0 Z " fill="#000000" transform="translate(0,0)"/>
<path d="M0 0 C0.7606929 -0.00191345 1.5213858 -0.0038269 2.30513 -0.00579834 C3.90776909 -0.00715217 5.51041944 -0.00351208 7.11303711 0.00488281 C9.52679024 0.01551928 11.93978646 0.00499896 14.35351562 -0.0078125 C25.99226996 -0.02108437 37.2778644 0.14688125 47.73828125 5.828125 C48.40899658 6.18036133 49.07971191 6.53259766 49.77075195 6.89550781 C51.81887465 7.9906058 53.84391778 9.11845152 55.86328125 10.265625 C56.48025879 10.61544434 57.09723633 10.96526367 57.73291016 11.32568359 C82.08847485 25.42280822 99.18160572 48.22698455 106.44116211 75.43115234 C110.6777966 93.18704282 106.79458625 106.24502087 98.86328125 122.265625 C97.48525033 125.14642872 96.11814734 128.03225556 94.75146484 130.91845703 C93.88927501 132.72953203 93.0189263 134.53675304 92.13916016 136.33935547 C88.94779176 142.89602634 86.57215545 148.94059161 85.86328125 156.265625 C85.76273438 157.16539062 85.6621875 158.06515625 85.55859375 158.9921875 C85.0459215 166.92835388 86.92502155 171.17284534 91.57470703 177.46826172 C93.09758788 179.59244679 94.52527332 181.76783191 95.953125 183.95703125 C101.74663359 192.82997983 107.70371906 201.52894626 114.05078125 210.015625 C120.40017201 218.52866722 126.28152866 227.23204572 131.86328125 236.265625 C132.46881836 237.2443457 133.07435547 238.22306641 133.69824219 239.23144531 C135.70252844 242.48580202 137.69180958 245.74884823 139.67578125 249.015625 C140.29831787 250.03285645 140.92085449 251.05008789 141.56225586 252.09814453 C150.96869982 267.73728791 157.03526506 282.81644441 157.05078125 301.203125 C157.06302734 301.96302734 157.07527344 302.72292969 157.08789062 303.50585938 C157.10860815 311.5925991 155.32398529 318.23988757 151.48828125 325.390625 C151.1437793 326.03314209 150.79927734 326.67565918 150.44433594 327.33764648 C146.62745617 334.13365582 141.67834965 339.77267584 136.45410156 345.51416016 C127.54002694 355.32839762 120.01661051 364.6578606 114.26708984 376.69677734 C107.50754047 390.73163756 98.6259779 403.38893117 88.46484375 415.171875 C84.62529829 419.66285233 81.11362213 424.41427582 77.54785156 429.12280273 C74.63743399 432.96118579 71.68383719 436.74032131 68.61328125 440.453125 C58.57877409 452.58899943 58.57877409 452.58899943 54.63085938 467.08105469 C55.01938615 470.73287985 56.42616072 473.66386518 58.11328125 476.890625 C58.46680664 477.57866211 58.82033203 478.26669922 59.18457031 478.97558594 C65.40076597 490.49274163 74.94038291 499.53600378 84.20703125 508.609375 C86.32202459 510.72436834 88.26833158 512.84389989 90.17578125 515.140625 C93.44919535 518.98332851 97.09684352 522.34780406 100.80078125 525.765625 C102.78231027 527.6069266 104.76240649 529.44975178 106.74169922 531.29345703 C108.20076665 532.64976851 109.66354852 534.00209161 111.12939453 535.35107422 C113.39444159 537.44784141 115.63070109 539.57187863 117.86328125 541.703125 C118.93243774 542.67765625 118.93243774 542.67765625 120.02319336 543.671875 C121.87493912 545.46449557 123.46874335 547.09778924 124.86328125 549.265625 C124.83203125 552.8984375 124.83203125 552.8984375 123.86328125 556.265625 C122.10406801 569.99948293 127.5242549 583.04492379 131.72802734 595.91259766 C131.99309082 596.74710449 132.2581543 597.58161133 132.53125 598.44140625 C132.76481201 599.15852783 132.99837402 599.87564941 133.23901367 600.61450195 C135.21914494 609.02367107 135.27739874 617.92794507 135.80078125 626.51953125 C135.8865132 627.90649674 135.97237205 629.29345438 136.05834961 630.68040466 C136.23794421 633.58592151 136.41593048 636.49153122 136.59277344 639.3972168 C136.81488256 643.04446125 137.04107998 646.69143805 137.26844788 650.33835793 C138.32431256 667.30744206 139.25310279 684.27348813 139.86328125 701.265625 C135.64040134 699.9477688 131.77213707 698.34324147 127.8203125 696.359375 C126.67401367 695.78558105 125.52771484 695.21178711 124.34667969 694.62060547 C123.12294449 694.0024813 121.89931396 693.38414987 120.67578125 692.765625 C119.40664728 692.12762417 118.13744087 691.4897674 116.86816406 690.85205078 C109.16168628 686.97203918 101.50238184 683.00914111 93.88598633 678.95507812 C86.57976464 675.07950093 79.17530497 671.40802782 71.76904297 667.72827148 C64.77384072 664.24409041 57.84567995 660.65203197 50.9453125 656.984375 C44.9640184 653.81661687 38.92532044 650.77560315 32.86328125 647.765625 C26.02490187 644.37017144 19.23010246 640.91151208 12.48828125 637.328125 C6.35170468 634.06709195 0.17870616 630.89456933 -6.04736328 627.80737305 C-8.10515062 626.78043081 -10.155722 625.73889896 -12.19873047 624.68286133 C-16.93853268 622.24730988 -21.53153439 620.05195028 -26.60546875 618.40625 C-31.9173065 616.52091599 -36.47692768 614.7025617 -40.13671875 610.265625 C-44.21553551 601.36397278 -45.76161116 591.58619148 -47.44726562 582.00097656 C-48.28680305 577.4524912 -49.43858568 573.06771174 -50.76171875 568.640625 C-51.15406647 567.26351048 -51.54469984 565.88590635 -51.93359375 564.5078125 C-52.12759766 563.82686523 -52.32160156 563.14591797 -52.52148438 562.44433594 C-53.97371087 557.30161006 -55.36879479 552.14283687 -56.76391602 546.984375 C-58.11153277 542.00380986 -59.48351402 537.03221475 -60.8984375 532.0703125 C-68.52043092 505.06661959 -72.86071853 477.63022174 -74.32788086 449.61547852 C-74.4246814 447.88382446 -74.4246814 447.88382446 -74.5234375 446.1171875 C-74.56944092 445.09061035 -74.61544434 444.0640332 -74.6628418 443.00634766 C-75.50437973 438.13921481 -78.69090626 435.55961051 -82.13671875 432.265625 C-87.6823832 426.04994533 -91.6389897 420.24104698 -94.13671875 412.265625 C-94.46671875 411.30527344 -94.79671875 410.34492187 -95.13671875 409.35546875 C-96.80552088 403.39306115 -97.18131407 397.15893095 -97.76171875 391.015625 C-97.82642365 390.33699402 -97.89112854 389.65836304 -97.95779419 388.95916748 C-100.42158424 362.56731706 -102.58536032 335.32557121 -85.38671875 313.203125 C-81.55560333 308.63948273 -77.54259517 304.23882738 -73.51171875 299.8515625 C-66.35347884 292.05755786 -59.58287526 283.93801979 -53.0546875 275.609375 C-44.60446548 264.94861253 -35.234212 254.70394871 -23.734375 247.3046875 C-16.08671638 241.30156299 -11.75899685 233.52294729 -7.32421875 225.015625 C-6.75251953 223.94054687 -6.18082031 222.86546875 -5.59179688 221.7578125 C-4.09346688 218.93369815 -2.60597411 216.10496166 -1.13671875 213.265625 C-0.74621338 212.54358887 -0.35570801 211.82155273 0.04663086 211.07763672 C1.24556604 208.41739847 0.75700504 207.01991922 -0.13671875 204.265625 C-2.52125427 199.41225221 -5.32107107 194.9285989 -10.13671875 192.265625 C-16.22299934 191.081895 -22.5016044 192.16633776 -28.58691406 192.9609375 C-32.16331856 193.38829798 -35.65933203 193.48566752 -39.26171875 193.515625 C-40.87433594 193.55429687 -40.87433594 193.55429687 -42.51953125 193.59375 C-45.13671875 193.265625 -45.13671875 193.265625 -46.85546875 192.140625 C-52.82146893 183.40989303 -54.32133157 170.53844221 -56.34912109 160.38769531 C-57.96487596 150.40323893 -57.96487596 150.40323893 -63.3984375 142.390625 C-64.59919922 141.83375 -64.59919922 141.83375 -65.82421875 141.265625 C-66.63246094 140.87375 -67.44070313 140.481875 -68.2734375 140.078125 C-68.88832031 139.81 -69.50320313 139.541875 -70.13671875 139.265625 C-69.73730073 132.60865807 -67.69690321 127.00461094 -65.41015625 120.765625 C-62.59334035 113.02370154 -61.01016745 106.10130257 -60.69921875 97.890625 C-60.40039604 90.15954523 -58.7593593 83.56698319 -56.13671875 76.265625 C-55.36960322 74.04229016 -54.61950996 71.81300779 -53.88671875 69.578125 C-53.5515625 68.60488281 -53.21640625 67.63164063 -52.87109375 66.62890625 C-50.76614003 56.98866606 -52.95704066 49.91099855 -56.69921875 40.953125 C-57.56627887 38.8576233 -58.42224007 36.75748566 -59.265625 34.65234375 C-59.8390564 33.27888794 -59.8390564 33.27888794 -60.42407227 31.87768555 C-61.24260873 28.87750684 -61.17758738 27.1870892 -60.13671875 24.265625 C-57.76654539 23.13518659 -55.69265194 22.37495413 -53.19921875 21.640625 C-46.50364704 19.42450115 -40.76906341 16.48752304 -34.82421875 12.703125 C-23.82841855 5.7262781 -13.36648771 -0.07582325 0 0 Z " fill="#FEFEFE" transform="translate(1034.13671875,644.734375)"/>
<path d="M0 0 C2.77446509 2.15575548 5.29629319 4.42455001 7.80859375 6.87890625 C9.77781494 8.78494387 11.7719891 10.41146376 14 12 C14.89460938 11.52949219 15.78921875 11.05898438 16.7109375 10.57421875 C22.92553903 7.35569662 28.91413098 4.39048325 35.71875 2.60546875 C38.09580745 2.02229627 38.09580745 2.02229627 40.6640625 0.9453125 C45.11694191 -0.31651047 49.26812397 -0.34131385 53.875 -0.3125 C54.80248047 -0.30758545 55.72996094 -0.3026709 56.68554688 -0.29760742 C77.2113156 0.04672542 96.41032064 6.22876847 111.546875 20.4609375 C119.48547078 28.67763696 124.6425715 37.08130396 128 48 C128.24492188 48.79148437 128.48984375 49.58296875 128.7421875 50.3984375 C133.15199336 67.13153645 127.67665812 83.5751548 120.75317383 98.72900391 C117.51607917 106.10263533 115.61932134 113.30591488 114.0625 121.1875 C109.30420791 143.62513678 102.46269892 159.89737571 86.40625 176.453125 C83.05615135 179.99900864 82.76030195 181.88892418 82.82617188 186.75341797 C83.11703176 190.51253689 84.13918429 193.97346094 85.25 197.5625 C85.55744141 198.63661133 85.55744141 198.63661133 85.87109375 199.73242188 C92.62241404 222.21636429 118.29274663 232.49821951 137.01977539 243.57275391 C175.94457566 266.69570937 175.94457566 266.69570937 181.90234375 285.91015625 C187.12074106 306.47112262 184.39117383 329.15262075 176.1015625 348.48828125 C175.58456787 349.71297119 175.58456787 349.71297119 175.05712891 350.96240234 C174.39066999 352.52280892 173.70528979 354.07539532 172.99365234 355.61572266 C165.08729111 374.05871861 164.78945221 395.81096084 163.06256866 415.55049515 C162.87227703 417.71852327 162.67885345 419.8862518 162.48455811 422.05392456 C159.37618907 456.77965381 157.64483446 491.12547588 158 526 C144.77864548 532.6625664 131.54005677 539.27247654 118.16821289 545.62890625 C109.71662951 549.64822137 101.29372698 553.72496566 92.875 557.8125 C90.03391791 559.19153761 87.19276135 560.57042173 84.3515625 561.94921875 C83.64939102 562.28998947 82.94721954 562.63076019 82.22377014 562.9818573 C71.67749178 568.09880364 61.11840866 573.1892349 50.56054688 578.28222656 C46.3561275 580.31063404 42.15211796 582.33988914 37.948349 584.36964417 C34.93337779 585.82538576 31.91816903 587.2806293 28.90258789 588.73510742 C23.34139293 591.41788547 17.78194377 594.10401754 12.22929382 596.80444336 C-13.91650691 609.51935565 -13.91650691 609.51935565 -27 615 C-25.48905828 587.82499222 -21.67776319 560.01607716 -9.29296875 535.56738281 C-8.10680458 533.21207646 -7.00519108 530.84049993 -5.9375 528.4296875 C2.15607577 510.24523013 11.35410265 492.30954223 25.125 477.75390625 C30.88969312 469.28701323 30.59991981 459.19119233 30.5625 449.3125 C30.56268127 448.57411896 30.56286255 447.83573792 30.56304932 447.07498169 C30.50698405 430.85495368 27.7619799 415.77154245 24 400 C23.73316406 398.86675293 23.46632813 397.73350586 23.19140625 396.56591797 C22.18280395 392.30131159 21.16146864 388.04020567 20.11523438 383.78466797 C16.57897695 369.38071703 14.06831881 354.8315129 11.75 340.1875 C11.57452637 339.09574463 11.39905273 338.00398926 11.21826172 336.87915039 C10.34214935 331.17823149 9.80520381 325.76735869 10 320 C3.89868889 325.15370744 -1.72449879 330.67443555 -7.3125 336.375 C-13.18686208 342.31225918 -19.02252396 347.9807373 -25.6171875 353.11328125 C-28.09211951 355.07294053 -30.3789739 357.16016131 -32.6875 359.3125 C-38.86094981 364.94912808 -45.60195531 369.82841769 -52.33105469 374.77246094 C-54.23009515 376.16923909 -56.11756502 377.58093363 -58 379 C-56.50323111 382.42229969 -54.52581023 384.82470213 -52 387.5625 C-50.7934375 388.88121094 -50.7934375 388.88121094 -49.5625 390.2265625 C-48.2940625 391.59941406 -48.2940625 391.59941406 -47 393 C-40.41133927 400.14457898 -34.0442832 407.38835011 -28 415 C-27.49484863 415.63260742 -26.98969727 416.26521484 -26.46923828 416.91699219 C-14.95278843 431.37634577 -4.10257261 446.28951125 5.75 461.9375 C6.15637695 462.58154785 6.56275391 463.2255957 6.98144531 463.88916016 C10.51262482 469.60477929 12.92555979 474.17399653 12 481 C10.85400391 482.70581055 10.85400391 482.70581055 9.3515625 484.51171875 C5.47782641 489.48576561 2.71886204 494.89228226 -0.125 500.5 C-0.63675781 501.49386719 -1.14851563 502.48773437 -1.67578125 503.51171875 C-4.48995764 508.98814941 -7.25695003 514.48765078 -10 520 C-10.99 520 -11.98 520 -13 520 C-13.36738281 518.83597656 -13.36738281 518.83597656 -13.7421875 517.6484375 C-17.78325926 505.97113359 -24.28109286 496.02957115 -33.359375 487.56640625 C-35.18215806 485.82608242 -36.79945745 483.97723893 -38.4375 482.0625 C-41.40605556 478.61578784 -44.54079104 475.40889141 -47.8125 472.25 C-49.61688208 470.39406415 -51.28143325 468.5088787 -52.95751953 466.5402832 C-57.20581484 461.67343664 -61.76099137 457.14018915 -66.35442734 452.60097313 C-67.90615361 451.06694712 -69.45404591 449.52914108 -71.00100708 447.99031067 C-75.39459934 443.62089648 -79.79384764 439.25721142 -84.19775391 434.89819336 C-86.90754923 432.21549358 -89.61219402 429.52768456 -92.31393814 426.83687782 C-93.33167408 425.82526193 -94.35129025 424.81553332 -95.37298203 423.80791283 C-102.05101815 417.22104357 -108.18732911 410.36725299 -114 403 C-114.86961868 401.92838875 -114.86961868 401.92838875 -115.75680542 400.83512878 C-120.71185162 394.69583278 -127.43692389 385.46030076 -126.625 377.22265625 C-123.02268556 364.41192553 -114.1976617 354.14874166 -106 344 C-104.80310547 342.49953125 -104.80310547 342.49953125 -103.58203125 340.96875 C-101.41698606 338.28709112 -99.21390505 335.64141775 -97 333 C-96.16984375 331.98421875 -95.3396875 330.9684375 -94.484375 329.921875 C-87.47684804 321.45601133 -79.86106149 313.72313142 -71.94213867 306.10375977 C-63.54376239 297.91036192 -59.23696774 289.65201259 -54.5 279 C-50.3365787 269.8245078 -45.96190996 260.81143253 -41.1875 251.9375 C-40.67316406 250.97005859 -40.15882812 250.00261719 -39.62890625 249.00585938 C-34.74894256 240.06551564 -28.8412268 232.47668267 -21.5625 225.375 C-20.99901855 224.81796387 -20.43553711 224.26092773 -19.85498047 223.68701172 C-16.26876023 220.16661255 -12.58873925 216.79294589 -8.7578125 213.5390625 C-6.30230729 211.38913127 -4.04906599 209.0601957 -1.765625 206.73046875 C0.00614508 204.99397728 1.85030373 203.40716374 3.75 201.8125 C7.36864017 198.69053593 10.63570313 195.31855625 13.875 191.8125 C14.58994629 191.04546753 14.58994629 191.04546753 15.31933594 190.26293945 C20.70926891 184.34581454 21.50262708 180.51619028 21.38671875 172.58984375 C20.46728667 164.05491359 16.52277214 156.20293341 12 149 C10.2162931 152.98310822 9.45487897 156.76544938 8.75 161.0625 C7.31432959 168.92233505 4.86668224 176.83726088 -0.68359375 182.8125 C-4.09284409 184.56024385 -7.38980403 184.357558 -11.125 184.25 C-11.89199219 184.23904297 -12.65898438 184.22808594 -13.44921875 184.21679688 C-18.09102938 184.12647399 -22.64506779 183.78569368 -27.25390625 183.2265625 C-31.14899407 182.9052039 -35.03064366 182.88479162 -38.9375 182.875 C-40.05801758 182.86823242 -40.05801758 182.86823242 -41.20117188 182.86132812 C-44.39742106 182.87008497 -46.94649268 182.98216423 -50 184 C-49.44359898 178.79798564 -48.15221355 174.35435378 -46.1875 169.5 C-37.34683766 146.41397348 -36.57733618 127.3196526 -45 104 C-45.7122612 101.97326332 -46.41760994 99.94460572 -47.11254883 97.91186523 C-47.6966973 96.21714111 -48.30796121 94.53182642 -48.921875 92.84765625 C-51.92835293 82.11801581 -52.40589449 71.26701557 -52.375 60.1875 C-52.37478851 59.48411499 -52.37457703 58.78072998 -52.37435913 58.05603027 C-52.34276749 47.52328668 -51.70332608 37.96109161 -48 28 C-47.49146484 26.43958984 -47.49146484 26.43958984 -46.97265625 24.84765625 C-43.19716409 14.40795018 -35.89792607 3.41584634 -26 -2 C-16.77973549 -5.52046463 -8.63071294 -4.5248398 0 0 Z " fill="#FEFEFE" transform="translate(1238,729)"/>
<path d="M0 0 C2.66262815 1.14914769 5.12649398 2.49906602 7.63916016 3.94970703 C8.75564941 4.59109619 9.87213867 5.23248535 11.02246094 5.89331055 C12.2358961 6.59690819 13.44927348 7.3006055 14.66259766 8.00439453 C15.92390574 8.73130597 17.18546554 9.45778081 18.44726562 10.18383789 C21.68959131 12.05095115 24.92866591 13.92362946 28.16699219 15.79766846 C31.0280664 17.45215874 33.89224843 19.10124163 36.75634766 20.75048828 C42.11326761 23.83630161 47.46706016 26.92749227 52.81982422 30.02050781 C58.22430411 33.14264058 63.63107178 36.26080657 69.03759766 39.37939453 C71.20427516 40.62937575 73.37094183 41.87937574 75.53759766 43.12939453 C77.14634766 44.05751953 77.14634766 44.05751953 78.78759766 45.00439453 C109.66259766 62.81689453 109.66259766 62.81689453 140.53759766 80.62939453 C141.61025879 81.2482251 142.68291992 81.86705566 143.78808594 82.50463867 C145.95316836 83.75374971 148.11820748 85.00293582 150.28320312 86.25219727 C155.72375471 89.39141763 161.16506981 92.52930016 166.60791016 95.66455078 C177.05965965 101.68686782 187.50059314 107.7260879 197.91259766 113.81689453 C206.59022007 118.89214576 215.30365333 123.9019822 224.03759766 128.87939453 C233.75875382 134.41941183 243.44654424 140.01314262 253.10449219 145.6628418 C263.6284439 151.81706195 274.19139903 157.90309449 284.75537109 163.98828125 C290.18419708 167.11619601 295.61079047 170.24797901 301.03759766 173.37939453 C303.20425348 174.62941332 305.37092015 175.87941332 307.53759766 177.12939453 C346.53759763 199.62939452 346.53759763 199.62939452 349.79223633 201.50708008 C351.9434299 202.74814707 354.0946342 203.98919546 356.24584961 205.23022461 C361.29722764 208.14437797 366.34850076 211.05871271 371.39938354 213.97372437 C373.18826684 215.00612931 374.97718483 216.03847409 376.76611328 217.07080078 C379.01097402 218.36625401 381.25576956 219.66182023 383.50048828 220.95751953 C384.51691406 221.54404297 385.53333984 222.13056641 386.58056641 222.73486328 C387.91124146 223.50286255 387.91124146 223.50286255 389.26879883 224.28637695 C392.52112113 226.15758787 395.77977275 228.0177803 399.03759766 229.87939453 C399.03759766 309.73939453 399.03759766 389.59939453 399.03759766 471.87939453 C390.03759766 469.87939453 390.03759766 469.87939453 386.10791016 468.80908203 C371.82032976 464.91867685 358.75351387 465.40780291 344.03759766 466.87939453 C344.03759766 399.22939453 344.03759766 331.57939453 344.03759766 261.87939453 C342.05759766 261.21939453 340.07759766 260.55939453 338.03759766 259.87939453 C336.36996719 259.01971818 334.72852886 258.10751377 333.11572266 257.14892578 C332.18646973 256.60115479 331.2572168 256.05338379 330.29980469 255.48901367 C329.30577637 254.89596436 328.31174805 254.30291504 327.28759766 253.69189453 C325.12392217 252.41519675 322.959846 251.13917783 320.79541016 249.86376953 C319.6794043 249.20441406 318.56339844 248.54505859 317.41357422 247.86572266 C312.01633436 244.69014097 306.58995765 241.56562893 301.16259766 238.44189453 C298.9776839 237.18281105 296.79278816 235.9236963 294.60791016 234.66455078 C292.98030762 233.72699951 292.98030762 233.72699951 291.31982422 232.77050781 C285.89099823 229.64259305 280.46440484 226.51081005 275.03759766 223.37939453 C272.87094183 222.12937574 270.70427516 220.87937575 268.53759766 219.62939453 C238.20426432 202.12939453 207.87093099 184.62939453 177.53759766 167.12939453 C176.46493652 166.51056396 175.39227539 165.8917334 174.28710938 165.25415039 C172.12202695 164.00503935 169.95698783 162.75585324 167.79199219 161.5065918 C162.3514406 158.36737144 156.9101255 155.2294889 151.46728516 152.09423828 C141.01553566 146.07192124 130.57460218 140.03270116 120.16259766 133.94189453 C111.48497524 128.8666433 102.77154198 123.85680687 94.03759766 118.87939453 C84.31644149 113.33937723 74.62865108 107.74564644 64.97070312 102.09594727 C57.71548019 97.85322168 50.44404799 93.63944289 43.16259766 89.44189453 C42.09887939 88.82862305 41.03516113 88.21535156 39.93920898 87.58349609 C34.81500856 84.63023996 29.68965046 81.67899909 24.56359863 78.72895813 C22.15542291 77.34279715 19.74769067 75.95586704 17.34002686 74.56881714 C15.63501532 73.58700155 13.92933096 72.60635469 12.22363281 71.62573242 C10.6794165 70.73615845 10.6794165 70.73615845 9.10400391 69.82861328 C8.19593994 69.30614014 7.28787598 68.78366699 6.35229492 68.24536133 C4.54633565 67.17961488 2.78238637 66.04258701 1.03759766 64.87939453 C-2.94530871 65.21168131 -5.81410262 66.72614409 -9.22412109 68.73095703 C-10.24699219 69.32714844 -11.26986328 69.92333984 -12.32373047 70.53759766 C-13.42136719 71.18664062 -14.51900391 71.83568359 -15.64990234 72.50439453 C-16.81157156 73.18418372 -17.97368927 73.86320701 -19.13623047 74.54150391 C-21.55057681 75.95097756 -23.96296156 77.3637244 -26.37402344 78.77880859 C-31.88558818 82.00994974 -37.42539615 85.19212448 -42.96240234 88.37939453 C-45.12920199 89.62916401 -47.29586825 90.87916477 -49.46240234 92.12939453 C-62.46240234 99.62939453 -62.46240234 99.62939453 -65.71289062 101.50463867 C-67.87797305 102.75374971 -70.04301217 104.00293582 -72.20800781 105.25219727 C-77.6485594 108.39141763 -83.0898745 111.52930016 -88.53271484 114.66455078 C-98.98446434 120.68686782 -109.42539782 126.7260879 -119.83740234 132.81689453 C-129.10740012 138.23860631 -138.42071987 143.58144368 -147.75085449 148.89862061 C-156.87523074 154.09984582 -165.96373009 159.35967331 -175.02929688 164.6628418 C-185.55324859 170.81706195 -196.11620372 176.90309449 -206.68017578 182.98828125 C-212.10900177 186.11619601 -217.53559516 189.24797901 -222.96240234 192.37939453 C-225.12905817 193.62941332 -227.29572484 194.87941332 -229.46240234 196.12939453 C-230.53490234 196.74814453 -231.60740234 197.36689453 -232.71240234 198.00439453 C-263.58740234 215.81689453 -263.58740234 215.81689453 -294.46240234 233.62939453 C-295.53659424 234.24919189 -296.61078613 234.86898926 -297.7175293 235.50756836 C-299.86685649 236.74742177 -302.01643015 237.98684803 -304.16625977 239.22583008 C-309.24074723 242.15103216 -314.31261851 245.08051176 -319.37576294 248.02529907 C-321.76555902 249.41488083 -324.1567707 250.80201625 -326.5480957 252.18896484 C-328.23380823 253.16802706 -329.91746821 254.15062059 -331.60107422 255.13330078 C-332.62394531 255.72626953 -333.64681641 256.31923828 -334.70068359 256.93017578 C-336.04706909 257.7138855 -336.04706909 257.7138855 -337.4206543 258.51342773 C-339.96240234 259.87939453 -339.96240234 259.87939453 -344.96240234 261.87939453 C-344.96240234 312.03939453 -344.96240234 362.19939453 -344.96240234 413.87939453 C-350.57240234 413.21939453 -356.18240234 412.55939453 -361.96240234 411.87939453 C-365.3955984 411.73792294 -368.73136025 411.63792128 -372.15380859 411.68408203 C-373.41619606 411.68832687 -373.41619606 411.68832687 -374.7040863 411.69265747 C-377.31118975 411.70357712 -379.91790836 411.72861882 -382.52490234 411.75439453 C-384.32632957 411.76446109 -386.12776234 411.77358034 -387.92919922 411.78173828 C-392.27374152 411.80342234 -396.61800751 411.83774166 -400.96240234 411.87939453 C-401.17260849 388.38375269 -401.33133429 364.88825168 -401.42871189 341.39185905 C-401.47512724 330.48211111 -401.53841075 319.57294726 -401.64135742 308.66357422 C-401.73103943 299.15534235 -401.78912066 289.64753344 -401.8091988 280.13889039 C-401.82093663 275.1034733 -401.84853401 270.06926626 -401.91397285 265.03423691 C-401.97507328 260.29460806 -401.99390557 255.55668716 -401.98037148 250.81670189 C-401.98284716 249.07756579 -402.00074793 247.33837251 -402.03525162 245.59957695 C-402.28347245 232.44515417 -402.28347245 232.44515417 -398.99330044 228.54557419 C-396.69155216 226.98178669 -394.54429469 225.89695794 -391.96240234 224.87939453 C-390.99359131 224.30382812 -390.02478027 223.72826172 -389.02661133 223.13525391 C-387.75539429 222.43625977 -387.75539429 222.43625977 -386.45849609 221.72314453 C-384.99585327 220.9130896 -384.99585327 220.9130896 -383.50366211 220.08666992 C-382.47942139 219.52326904 -381.45518066 218.95986816 -380.39990234 218.37939453 C-371.88804316 213.65533469 -363.42364122 208.86437814 -355.02490234 203.94189453 C-346.72852938 199.08014777 -338.41897098 194.24312691 -330.08740234 189.44189453 C-329.00724854 188.81935791 -327.92709473 188.19682129 -326.81420898 187.55541992 C-324.624439 186.29362627 -322.43457879 185.03198919 -320.24462891 183.77050781 C-314.81580292 180.64259305 -309.38920953 177.51081005 -303.96240234 174.37939453 C-301.79574652 173.12937574 -299.62907985 171.87937575 -297.46240234 170.62939453 C-295.85365234 169.70126953 -295.85365234 169.70126953 -294.21240234 168.75439453 C-232.46240234 133.12939453 -232.46240234 133.12939453 -229.21191406 131.25415039 C-227.04683164 130.00503935 -224.88179252 128.75585324 -222.71679688 127.5065918 C-217.27624529 124.36737144 -211.83493019 121.2294889 -206.39208984 118.09423828 C-195.94034035 112.07192124 -185.49940686 106.03270116 -175.08740234 99.94189453 C-165.81740457 94.52018276 -156.50408482 89.17734538 -147.1739502 83.86016846 C-138.04957394 78.65894324 -128.9610746 73.39911575 -119.89550781 68.09594727 C-109.3715561 61.94172712 -98.80860097 55.85569457 -88.24462891 49.77050781 C-82.81580292 46.64259305 -77.38920953 43.51081005 -71.96240234 40.37939453 C-69.79574652 39.12937574 -67.62907985 37.87937575 -65.46240234 36.62939453 C-64.38990234 36.01064453 -63.31740234 35.39189453 -62.21240234 34.75439453 C-52.46240235 29.12939453 -52.46240235 29.12939453 -49.20727539 27.25146484 C-47.057666 26.01128692 -44.90808876 24.77105326 -42.75854492 23.53076172 C-37.68931022 20.60589223 -32.61975298 17.6815862 -27.54904175 14.75927734 C-25.15813637 13.38132516 -22.76741563 12.00305281 -20.37670898 10.62475586 C-18.69256271 9.65398471 -17.00815003 8.68367579 -15.32373047 7.71337891 C-14.30085938 7.12363281 -13.27798828 6.53388672 -12.22412109 5.92626953 C-11.32653076 5.4090332 -10.42894043 4.89179688 -9.50415039 4.35888672 C-7.7596576 3.3434582 -6.05290636 2.26118179 -4.38354492 1.12646484 C-1.96240234 -0.12060547 -1.96240234 -0.12060547 0 0 Z " fill="#FDFDFD" transform="translate(1174.96240234375,441.12060546875)"/>
<path d="M0 0 C4.83295911 2.34760128 9.42658581 5.03329688 14.0390625 7.78515625 C16.20273799 9.06185403 18.36681416 10.33787296 20.53125 11.61328125 C21.64725586 12.27263672 22.76326172 12.93199219 23.91308594 13.61132812 C29.3103258 16.78690981 34.7367025 19.91142185 40.1640625 23.03515625 C42.34897626 24.29423973 44.53387199 25.55335448 46.71875 26.8125 C47.80381836 27.43753418 48.88888672 28.06256836 50.00683594 28.70654297 C55.43566192 31.83445773 60.86225531 34.96624073 66.2890625 38.09765625 C68.45571833 39.34767504 70.622385 40.59767503 72.7890625 41.84765625 C144.2890625 83.09765625 144.2890625 83.09765625 215.7890625 124.34765625 C216.86172363 124.96648682 217.93438477 125.58531738 219.03955078 126.22290039 C221.20463321 127.47201143 223.36967232 128.72119754 225.53466797 129.97045898 C230.97521956 133.10967934 236.41653466 136.24756188 241.859375 139.3828125 C252.72300072 145.64203035 263.57877383 151.9144861 274.4140625 158.22265625 C275.39133301 158.79056885 276.36860352 159.35848145 277.37548828 159.94360352 C278.2982959 160.48170654 279.22110352 161.01980957 280.171875 161.57421875 C280.96996582 162.03908691 281.76805664 162.50395508 282.59033203 162.98291016 C283.48091309 163.51577637 284.37149414 164.04864258 285.2890625 164.59765625 C285.94166957 164.91233435 286.59427664 165.22701246 287.26665968 165.55122626 C289.52090325 166.7358119 291.39203362 167.89367022 293.2890625 169.59765625 C294.13742176 172.83554114 294.38191741 174.82723917 294.31166077 178.07040405 C294.331439 179.347256 294.331439 179.347256 294.3516168 180.64990294 C294.38587106 183.50256186 294.3629397 186.35185899 294.34008789 189.20458984 C294.35256635 191.24995162 294.36843314 193.29529512 294.38743591 195.34060669 C294.42822567 200.89935667 294.41813393 206.45694501 294.3965981 212.01576185 C294.38340851 216.66223553 294.39551939 221.30849894 294.40780348 225.95496428 C294.43664361 236.92769617 294.42500841 247.89986873 294.38696289 258.87255859 C294.3483712 270.16826558 294.37105327 281.46262564 294.42549139 292.75823724 C294.47047065 302.4698532 294.48012582 312.18105801 294.46122164 321.89275992 C294.45009619 327.68656778 294.45128258 333.47965263 294.48515511 339.27338791 C294.51526377 344.73231461 294.50081049 350.18941875 294.45337868 355.6482048 C294.44315631 357.64146059 294.44793185 359.6348644 294.46957779 361.62802887 C294.58675556 373.42350104 293.47490087 381.6570456 286.5042944 391.37981606 C280.05978275 400.74109722 277.52653016 412.04111644 276.8515625 423.22265625 C276.5254648 428.37379208 275.71583154 432.06065326 273.2890625 436.59765625 C268.77230219 435.10578781 267.07441584 431.49811133 264.7265625 427.66015625 C251.55331601 407.12892438 230.20767557 394.75658125 209.75415039 382.4453125 C183.07326745 366.3818612 183.07326745 366.3818612 176.2890625 359.59765625 C176.59487214 355.95852158 178.43716094 354.01687786 180.7890625 351.34765625 C194.69576085 334.32565809 200.0985797 314.49337045 204.89453125 293.4453125 C206.68065771 285.76880917 208.63934482 278.46089444 212.2265625 271.41015625 C215.59730515 264.31737768 217.50609607 257.20955138 219.2890625 249.59765625 C219.5159375 248.78296875 219.7428125 247.96828125 219.9765625 247.12890625 C223.24920276 234.22015857 222.2616369 219.17213569 218.2890625 206.59765625 C217.94875 205.47230469 217.6084375 204.34695313 217.2578125 203.1875 C209.6792146 180.06765574 193.91105884 160.95604673 172.2890625 149.59765625 C171.474375 149.1696875 170.6596875 148.74171875 169.8203125 148.30078125 C146.36023479 136.85339393 115.43314447 132.96338067 90.2890625 140.59765625 C89.24492188 140.96246094 88.20078125 141.32726562 87.125 141.703125 C81.59069944 143.44879281 77.42399982 141.7854133 72.4765625 139.22265625 C59.66169898 132.62395787 45.35171658 131.24686017 31.3515625 135.16015625 C16.82693461 140.46192156 5.65768457 149.61186339 -2.7109375 162.59765625 C-5.61236948 159.69622427 -5.87342744 156.16867643 -6.7734375 152.28515625 C-11.97384548 131.39538181 -21.64831994 111.92387422 -35.7109375 95.59765625 C-36.30003906 94.86417969 -36.88914062 94.13070312 -37.49609375 93.375 C-52.29544238 75.55922362 -75.10191909 63.09466264 -96.7109375 55.59765625 C-94.04953618 52.75806994 -91.53835185 50.72914064 -88.1328125 48.85546875 C-86.78183472 48.10366333 -86.78183472 48.10366333 -85.40356445 47.33666992 C-84.43249756 46.80404541 -83.46143066 46.2714209 -82.4609375 45.72265625 C-80.36505361 44.55618081 -78.27002697 43.388164 -76.17578125 42.21875 C-75.10054199 41.6191748 -74.02530273 41.01959961 -72.91748047 40.40185547 C-67.91798392 37.58882977 -62.9703649 34.68933701 -58.0234375 31.78515625 C-51.53425643 27.98126445 -45.03407441 24.19886407 -38.5 20.47265625 C-37.89205093 20.12587326 -37.28410187 19.77909027 -36.6577301 19.42179871 C-33.6241129 17.69263615 -30.58826419 15.96752235 -27.54956055 14.24731445 C-22.57877841 11.42407781 -17.63277166 8.59658448 -12.81640625 5.515625 C-12.12554932 5.07710205 -11.43469238 4.6385791 -10.72290039 4.18676758 C-9.0012588 3.07902743 -7.29651425 1.9451376 -5.59375 0.80859375 C-2.7109375 -0.40234375 -2.7109375 -0.40234375 0 0 Z " fill="#00AF4B" transform="translate(1175.7109375,562.40234375)"/>
<path d="M0 0 C1.43520996 0.00628418 1.43520996 0.00628418 2.89941406 0.01269531 C26.3898418 0.38330629 44.71406796 9.71406796 61.203125 26.203125 C66.53937012 31.92396436 70.59562521 38.45743691 74.3125 45.3125 C74.91964844 46.39144531 75.52679687 47.47039063 76.15234375 48.58203125 C80.57464353 58.01973925 80.86797964 67.30619274 80.875 77.5625 C80.87790039 78.24945953 80.88080078 78.93641907 80.88378906 79.64419556 C80.87799258 91.79126618 79.21227534 102.74425707 73.5 113.5625 C73.14744141 114.24578369 72.79488281 114.92906738 72.43164062 115.63305664 C69.82384159 120.58302365 66.98390523 125.07555003 63.3125 129.3125 C62.71953125 130.03566406 62.1265625 130.75882813 61.515625 131.50390625 C54.3192812 140.00998462 45.66265056 146.35008515 36.3125 152.3125 C40.71245047 166.74742523 64.61814509 177.41310407 76.5625 185.02734375 C77.19357666 185.43001465 77.82465332 185.83268555 78.47485352 186.24755859 C80.11291819 187.2879358 81.75735395 188.31826363 83.40234375 189.34765625 C85.61784678 190.84349252 87.46351404 192.29710112 89.44140625 194.05859375 C92.2285345 196.72416044 92.2285345 196.72416044 96.3125 196.3125 C96.45945312 195.16974609 96.45945312 195.16974609 96.609375 194.00390625 C97.60542024 187.12604214 99.11911977 181.46585726 102.3125 175.3125 C102.71082031 174.46171875 103.10914063 173.6109375 103.51953125 172.734375 C108.47056203 162.74670483 116.48843258 152.83853793 126.3125 147.3125 C127.3025 147.6425 128.2925 147.9725 129.3125 148.3125 C129.61766783 149.92058296 129.92244105 151.52874149 130.22558594 153.13720703 C130.49588958 154.56704061 130.76874974 155.99639286 131.04394531 157.42529297 C131.75634478 161.1649845 132.41311685 164.89643419 132.93359375 168.66796875 C134.81255841 181.81922178 138.34563773 193.25853593 149.39453125 201.6640625 C153.25015974 204.97786132 153.65550804 208.68460486 154.1640625 213.58984375 C154.29296875 214.82669922 154.421875 216.06355469 154.5546875 217.33789062 C154.68101562 218.62888672 154.80734375 219.91988281 154.9375 221.25 C155.13859375 223.13428711 155.13859375 223.13428711 155.34375 225.05664062 C155.72316376 228.80625518 156.03284329 232.55421083 156.3125 236.3125 C156.42029785 237.52180176 156.5280957 238.73110352 156.63916016 239.97705078 C157.08775664 248.20131959 157.08775664 248.20131959 155.09716797 251.05444336 C153.28225999 252.43668114 151.51078179 253.36230604 149.4375 254.3125 C147.95448543 255.11007369 146.47545025 255.91508079 145 256.7265625 C144.2265625 257.13938477 143.453125 257.55220703 142.65625 257.97753906 C138.69161443 260.2357294 135.09079327 262.96377136 131.4375 265.6875 C97.372134 290.65842541 97.372134 290.65842541 83.3125 292.3125 C82.11625 292.456875 80.92 292.60125 79.6875 292.75 C68.03719159 292.48471784 58.40677264 282.73494801 50.3125 275.3125 C49.4978125 274.59191406 48.683125 273.87132812 47.84375 273.12890625 C26.7243732 253.4596275 17.19687339 222.34782068 9.71875 195.33203125 C8.46121357 190.7967814 7.10615388 186.29969839 5.6875 181.8125 C5.48600342 181.17401123 5.28450684 180.53552246 5.0769043 179.87768555 C4.48997573 178.02224171 3.90125254 176.16736587 3.3125 174.3125 C2.53800799 171.85531687 1.76692883 169.39705422 1 166.9375 C0.67386719 165.89851563 0.34773437 164.85953125 0.01171875 163.7890625 C-0.6875 161.3125 -0.6875 161.3125 -0.6875 159.3125 C-1.22375 159.29832031 -1.76 159.28414062 -2.3125 159.26953125 C-23.48708818 157.98094611 -43.85104765 147.16294827 -58.05859375 131.73828125 C-71.05659177 116.08662768 -77.05393399 99.68209926 -77 79.5 C-77.01611328 78.30568359 -77.03222656 77.11136719 -77.04882812 75.88085938 C-77.05486068 64.79905905 -75.10102778 54.96047154 -69.9375 45.125 C-69.58896973 44.44574463 -69.24043945 43.76648926 -68.88134766 43.06665039 C-66.03118178 37.6577982 -62.71050151 32.92118908 -58.6875 28.3125 C-58.21957031 27.714375 -57.75164063 27.11625 -57.26953125 26.5 C-43.50636286 9.228573 -21.72934893 -0.1313185 0 0 Z " fill="#FDFDFD" transform="translate(795.6875,880.6875)"/>
<path d="M0 0 C11.88 0 23.76 0 36 0 C38.00024485 8.66772767 39.77163147 17.10984329 41.0625 25.875 C41.22298828 26.93074219 41.38347656 27.98648437 41.54882812 29.07421875 C42.79771555 37.37004127 43.91038215 45.68203161 45 54 C45.23187012 52.74977051 45.46374023 51.49954102 45.70263672 50.21142578 C46.57042478 45.53339827 47.43913251 40.85554192 48.30810547 36.17773438 C48.68270191 34.16052771 49.05705532 32.1432759 49.43115234 30.12597656 C49.97167716 27.21146678 50.5131017 24.29712529 51.0546875 21.3828125 C51.21935516 20.49385284 51.38402283 19.60489319 51.55368042 18.68899536 C52.03067111 16.12500155 52.51398893 13.56229825 53 11 C53.26275726 9.59666412 53.26275726 9.59666412 53.53082275 8.16497803 C53.7923111 6.80303314 53.7923111 6.80303314 54.05908203 5.41357422 C54.21555206 4.59073944 54.37202209 3.76790466 54.53323364 2.9201355 C55 1 55 1 56 0 C58.26991887 -0.09439978 60.54281967 -0.11742226 62.81469727 -0.11352539 C63.88293228 -0.11374443 63.88293228 -0.11374443 64.9727478 -0.1139679 C67.33733112 -0.1132687 69.70183661 -0.10547606 72.06640625 -0.09765625 C73.70165463 -0.09579209 75.33690357 -0.09436818 76.97215271 -0.09336853 C81.28434785 -0.08954318 85.59650952 -0.07971275 89.90869141 -0.06866455 C94.30565946 -0.0584508 98.70263289 -0.05387099 103.09960938 -0.04882812 C111.73308831 -0.03809049 120.36654 -0.02101387 129 0 C129.55419583 6.66684006 130.10516224 13.33394178 130.65405273 20.0012207 C130.84051187 22.26169649 131.02766688 24.522115 131.21557617 26.7824707 C132.15207384 38.05290797 133.06379548 49.31566862 133.67918396 60.60864258 C133.94699974 65.41897512 134.38900278 70.15931082 135 74.9375 C135.75845649 80.95182293 136.41817316 86.96586761 137 93 C137.03440186 92.29020996 137.06880371 91.58041992 137.10424805 90.84912109 C138.12242094 70.96238911 140.34222208 51.39150217 143.09407043 31.67687988 C144.00730972 25.08192075 144.79562386 18.47507172 145.55273438 11.8605957 C146.01109853 7.90420244 146.50598746 3.95210032 147 0 C160.53 0 174.06 0 188 0 C189.43020796 2.86041592 189.40943729 5.53962183 189.68359375 8.7265625 C189.74338913 9.4144133 189.80318451 10.1022641 189.86479187 10.81095886 C190.0603411 13.08193646 190.24919555 15.35341101 190.4375 17.625 C190.50314148 18.39911224 190.56878296 19.17322449 190.63641357 19.97079468 C191.73422073 32.92528584 192.62611016 45.88726213 193.35327148 58.86767578 C193.46070679 60.73721924 193.46070679 60.73721924 193.5703125 62.64453125 C193.62977051 63.73096924 193.68922852 64.81740723 193.75048828 65.93676758 C194.00025348 69.00311196 194.48927913 71.96780035 195 75 C195.13571601 76.72444858 195.24173231 78.45151924 195.31640625 80.1796875 C195.37924805 81.571875 195.37924805 81.571875 195.44335938 82.9921875 C195.48267578 83.94351562 195.52199219 84.89484375 195.5625 85.875 C195.60568359 86.84953125 195.64886719 87.8240625 195.69335938 88.828125 C195.79882274 91.21862802 195.90094175 93.60922444 196 96 C197.01263545 92.96209365 197.21092458 90.65896527 197.359375 87.47265625 C198.20913204 71.30935925 199.60504777 55.26998517 201.4375 39.1875 C201.54082642 38.26663605 201.64415283 37.34577209 201.75061035 36.39700317 C202.05545664 33.69491003 202.36802093 30.99382848 202.68359375 28.29296875 C202.77114426 27.52171661 202.85869476 26.75046448 202.94889832 25.95584106 C203.9932395 17.23602813 205.55098856 8.69406866 207 0 C219.54 0 232.08 0 245 0 C245 10.12354875 245 10.12354875 244.37670898 15.18823242 C244.23888504 16.33104675 244.1010611 17.47386108 243.95906067 18.65130615 C243.80628159 19.87367981 243.6535025 21.09605347 243.49609375 22.35546875 C243.25259312 24.36141889 243.00909718 26.3673696 242.76578426 28.37334251 C242.50588237 30.50832234 242.24345466 32.64297794 241.98028564 34.77755737 C241.14913379 41.52136768 240.33327221 48.26703226 239.51808929 55.01278877 C239.3309167 56.5615916 239.14356298 58.11037255 238.9560318 59.659132 C237.57970376 71.03279067 236.25516924 82.41138566 234.98046875 93.796875 C234.90098684 94.50617472 234.82150494 95.21547443 234.73961449 95.94626808 C234.05022207 102.10313962 233.36418884 108.26037789 232.68649292 114.41854858 C232.27523062 118.15300777 231.86037759 121.88705567 231.4453125 125.62109375 C231.32790207 126.7027179 231.21049164 127.78434204 231.08952332 128.89874268 C230.29714362 136.00537518 229.17943981 142.92336113 228 150 C211.83 150 195.66 150 179 150 C176.62586292 137.53578032 174.28889391 125.15345027 172.375 112.625 C172.16955996 111.30594452 171.96382977 109.9869342 171.7578125 108.66796875 C170.54620167 100.83133204 169.44796604 92.98885116 168.45166016 85.12255859 C168.09782895 82.67634175 167.66702896 80.37468192 167 78 C166.24974739 83.39579824 165.49977036 88.79163473 164.75 94.1875 C164.63773071 94.99545013 164.52546143 95.80340027 164.40979004 96.63583374 C162.68429863 109.05521967 160.96573705 121.47553607 159.25683594 133.8972168 C159.10504883 134.99976807 158.95326172 136.10231934 158.796875 137.23828125 C158.66635742 138.18743408 158.53583984 139.13658691 158.40136719 140.11450195 C157.94284793 143.4108761 157.47066596 146.70533826 157 150 C140.83 150 124.66 150 108 150 C105.74998234 137.6249029 105.74998234 137.6249029 105.23472595 133.15086365 C105.11562363 132.1320813 104.9965213 131.11329895 104.87380981 130.06364441 C104.75166107 128.98746353 104.62951233 127.91128265 104.50366211 126.80249023 C104.36842636 125.63676483 104.23319061 124.47103943 104.09385681 123.26998901 C103.65157275 119.44991292 103.21439206 115.62927209 102.77734375 111.80859375 C102.46939192 109.13534342 102.16040046 106.4622135 101.85145569 103.78907776 C101.20613087 98.20055832 100.56343297 92.61174215 99.92260742 87.02270508 C99.02204281 79.16839129 98.11644654 71.31466349 97.20997226 63.46102989 C96.57838653 57.98730186 95.94803625 52.51343144 95.31789708 47.03953671 C95.09111235 45.06961323 94.86422768 43.09970126 94.63734245 41.12978935 C94.21302979 37.44266125 93.78979922 33.75541066 93.36694336 30.06811523 C93.1806839 28.45080757 93.1806839 28.45080757 92.99066162 26.80082703 C92.27392349 20.53867176 91.60734208 14.2737281 91 8 C90.67 8 90.34 8 90 8 C89.79246094 8.82757812 89.58492187 9.65515625 89.37109375 10.5078125 C87.32710754 18.42719005 85.01753886 26.21778602 82.5 34 C80.1385113 41.30162159 78.00346317 48.58605925 76.09765625 56.01953125 C74.49085483 62.04621457 72.49875035 67.96409785 70.54882812 73.88671875 C66.84030455 85.2718024 64.55313864 95.61425612 64.48828125 107.640625 C64.46135445 109.51291779 64.46135445 109.51291779 64.43388367 111.42303467 C64.38019317 115.36532323 64.34601733 119.30749363 64.3125 123.25 C64.28088457 125.94144554 64.24511325 128.6328304 64.20898438 131.32421875 C64.12210203 137.88282565 64.06167752 144.44091525 64 151 C51.79 151 39.58 151 27 151 C27.01353516 145.28042969 27.01353516 145.28042969 27.02734375 139.4453125 C27.01222722 135.65516492 26.98527505 131.86526723 26.95727539 128.07519531 C26.94432499 125.48831358 26.94322317 122.90133898 26.95532227 120.31445312 C27.03106664 101.76068939 24.67519887 85.65512515 19 68 C18.59206478 66.65247114 18.18768634 65.30385381 17.78881836 63.95361328 C16.89304881 60.95696286 15.95589039 57.97790608 15 55 C11.86353254 45.02612563 9.04690396 34.99499185 6.37866211 24.88647461 C4.62851995 18.26886141 2.76709974 11.72670089 0.62890625 5.22265625 C0 3 0 3 0 0 Z " fill="#FBFBFB" transform="translate(1120,1430)"/>
<path d="M0 0 C15.98323379 7.9916169 25.81059805 19.84229622 31.7421875 36.55859375 C33.17664776 41.41928821 32.92637907 46.27977773 32.9296875 51.30859375 C32.94193359 52.2728125 32.95417969 53.23703125 32.96679688 54.23046875 C32.98536529 63.34137247 31.13727349 70.51369259 26.9921875 78.62109375 C26.45549438 79.67478149 26.45549438 79.67478149 25.90795898 80.74975586 C23.37955181 85.59110987 20.84288067 89.87899866 16.7421875 93.55859375 C16.12214844 94.12449219 15.50210937 94.69039062 14.86328125 95.2734375 C4.39864964 104.08068731 -6.53612188 108.1677896 -19.8359375 109.953125 C-23.31247053 110.23119254 -23.31247053 110.23119254 -25.2578125 112.55859375 C-25.89962457 114.63310432 -26.45073541 116.73597887 -26.95703125 118.84765625 C-27.11253952 119.48984604 -27.26804779 120.13203583 -27.42826843 120.79368591 C-27.94112596 122.9220042 -28.44317082 125.0527241 -28.9453125 127.18359375 C-29.30446194 128.68035039 -29.66400545 130.17701253 -30.02392578 131.67358398 C-31.77711328 139.00985278 -33.45536262 146.35664175 -34.98828125 153.7421875 C-41.41353309 184.64605038 -50.4740028 213.89448613 -65.0078125 242.05859375 C-65.34820557 242.7230249 -65.68859863 243.38745605 -66.03930664 244.07202148 C-68.94544908 249.48950702 -72.3111526 254.91193087 -77.78125 257.96875 C-87.37992019 260.25486861 -94.82440882 258.20603395 -103.2578125 253.55859375 C-104.91296875 252.70394531 -104.91296875 252.70394531 -106.6015625 251.83203125 C-115.45905317 247.14219055 -122.90576684 241.33707556 -130.2578125 234.55859375 C-131.10472656 233.78257812 -131.95164062 233.0065625 -132.82421875 232.20703125 C-135.06413939 230.0618619 -137.1615629 227.8437461 -139.2578125 225.55859375 C-139.89025879 224.88803955 -140.52270508 224.21748535 -141.17431641 223.52661133 C-147.53360565 215.8026567 -147.108382 208.26159722 -146.7578125 198.80859375 C-146.73119132 197.33468948 -146.70773657 195.86072451 -146.6875 194.38671875 C-146.2420325 168.47268714 -141.428239 143.79367263 -129.2578125 120.55859375 C-121.23492469 123.8167971 -116.2089774 134.94923264 -112.99169922 142.56152344 C-111.10692827 147.69040779 -109.87584751 153.04274224 -108.50976562 158.32739258 C-105.7515383 168.84448454 -102.31627268 179.08844154 -95.2578125 187.55859375 C-94.9278125 187.55859375 -94.5978125 187.55859375 -94.2578125 187.55859375 C-94.11085938 186.58921875 -93.96390625 185.61984375 -93.8125 184.62109375 C-90.12800211 161.9333975 -79.65302809 141.12185965 -66.2578125 122.55859375 C-65.13019484 120.98438466 -64.00259197 119.41016499 -62.875 117.8359375 C-59.68661552 113.39746827 -56.47845204 108.97370125 -53.2578125 104.55859375 C-56.36285988 100.81691158 -59.35369521 97.25928617 -63.1953125 94.24609375 C-71.67096184 86.98356216 -76.76710265 77.03072329 -80.2578125 66.55859375 C-80.54925505 61.87581552 -80.53577047 57.18690078 -80.5703125 52.49609375 C-80.61381836 50.56733398 -80.61381836 50.56733398 -80.65820312 48.59960938 C-80.71067512 40.69248348 -79.94327883 34.58960069 -76.2578125 27.55859375 C-75.73960938 26.55828125 -75.22140625 25.55796875 -74.6875 24.52734375 C-58.5779369 -1.05367103 -28.35656941 -12.54625193 0 0 Z " fill="#FDFDFD" transform="translate(1563.2578125,941.44140625)"/>
<path d="M0 0 C16.83 0 33.66 0 51 0 C55.56858847 26.2693837 55.56858847 26.2693837 56.625 35.75 C57.38618626 42.41944148 58.29912776 48.99197792 59.59863281 55.58032227 C60.12964057 58.7815497 60.14382401 61.76395976 60 65 C60.66 65 61.32 65 62 65 C62.03738281 64.15824219 62.07476563 63.31648438 62.11328125 62.44921875 C62.59531586 53.34727116 63.4385924 44.30987407 64.4375 35.25 C64.55971924 34.12682373 64.68193848 33.00364746 64.80786133 31.84643555 C65.51623746 25.56678926 66.38746403 19.35347208 67.51977539 13.13574219 C68.18680238 8.78022892 68.56155743 4.38442573 69 0 C86.16 0 103.32 0 121 0 C121 49.5 121 99 121 150 C109.45 150 97.9 150 86 150 C85.67 120.96 85.34 91.92 85 62 C83.35 75.2 81.7 88.4 80 102 C78.94283056 109.71359475 77.87567999 117.42178775 76.75 125.125 C76.4918597 126.91531735 76.23404967 128.70568235 75.9765625 130.49609375 C75.03680564 137.00754745 74.08167711 143.50993734 73 150 C64.75 150 56.5 150 48 150 C47.46890625 146.21015625 46.9378125 142.4203125 46.390625 138.515625 C45.86108962 134.73875732 45.3314292 130.9619072 44.80175781 127.18505859 C44.44095088 124.61183461 44.08026863 122.03859314 43.71972656 119.46533203 C43.19370923 115.71121389 42.66720358 111.95716446 42.140625 108.203125 C41.98627991 107.10083557 41.83193481 105.99854614 41.6729126 104.862854 C39.80752286 91.57151144 37.89812157 78.28685102 36 65 C35.67 93.05 35.34 121.1 35 150 C23.45 150 11.9 150 0 150 C0 100.5 0 51 0 0 Z " fill="#FBFBFB" transform="translate(1146,1620)"/>
<path d="M0 0 C3 1 3 1 4.75 4.0625 C7.7706178 10.35545374 4.45493179 18.4373038 2.5 24.6875 C0.3838615 31.56192706 -1.03197146 37.63333791 -1.25 44.875 C-1.66054083 53.12860247 -4.17008411 60.26104635 -7 68 C-7.76596555 70.4116539 -8.51699345 72.82812487 -9.25 75.25 C-10.13886483 78.17888247 -11.03207354 81.09622061 -12 84 C-12.82866263 93.10345094 -12.41132883 100.43490846 -7 108 C-4.33817235 111.11879377 -1.70098021 114.1495099 2 116 C2.9296875 118.59765625 2.9296875 118.59765625 3.875 122.0625 C4.22433594 123.32964844 4.57367187 124.59679687 4.93359375 125.90234375 C5.65173481 128.61539344 6.32712513 131.33521204 6.97265625 134.06640625 C10.62559778 149.50189304 14.30022906 161.88933158 28.18359375 170.51953125 C32.62623878 172.85484674 36.88378299 174.171253 41.875 174.625 C42.65617188 174.69976563 43.43734375 174.77453125 44.2421875 174.8515625 C45.11230469 174.92503906 45.11230469 174.92503906 46 175 C42.78628697 178.30586251 39.49958244 181.2794323 35.875 184.125 C27.35058449 191.04319993 19.81906397 198.66638997 13.08984375 207.3359375 C7.47213617 214.49720212 1.49787016 221.39304851 -4.625 228.125 C-9.28441898 233.25783588 -13.65716695 238.5985048 -18 244 C-19.05574219 245.30517578 -19.05574219 245.30517578 -20.1328125 246.63671875 C-23.71036404 251.07805175 -27.19611687 255.54735628 -30.48046875 260.2109375 C-32.41192213 262.48498801 -34.63378484 264.19451818 -37 266 C-37.62565542 263.04180397 -38.25053721 260.08344783 -38.875 257.125 C-39.04902344 256.30257813 -39.22304688 255.48015625 -39.40234375 254.6328125 C-39.57636719 253.8078125 -39.75039063 252.9828125 -39.9296875 252.1328125 C-40.10991455 251.28589844 -40.2901416 250.43898438 -40.47583008 249.56640625 C-40.82005386 247.88104043 -41.14100827 246.19072143 -41.4362793 244.49609375 C-42.55703945 238.19560425 -44.50002153 232.6056872 -47.0625 226.75 C-47.45735596 225.83976074 -47.85221191 224.92952148 -48.2590332 223.99169922 C-53.8256342 211.28264482 -53.8256342 211.28264482 -62.50713539 200.70640469 C-66.63963482 196.9389758 -67.45244166 193.77202978 -67.7215271 188.2358551 C-67.76081029 185.45067263 -67.72409942 182.66995968 -67.68115234 179.88500977 C-67.67945834 178.34705166 -67.68041295 176.80908871 -67.68380737 175.27113342 C-67.68552456 171.11009503 -67.65032074 166.95010043 -67.60836363 162.78930402 C-67.57078271 158.43583843 -67.56732549 154.08234727 -67.56021118 149.72874451 C-67.54158387 141.49099356 -67.49237576 133.25372201 -67.43211424 125.01618189 C-67.36498304 115.6353711 -67.33204353 106.25453707 -67.30194163 96.87354577 C-67.23927461 77.58209235 -67.133781 58.29108476 -67 39 C-63.43821245 36.94481882 -59.87638836 34.88970099 -56.31453228 32.8346386 C-55.10608622 32.13739747 -53.89764966 31.44013986 -52.68922329 30.74286461 C-46.22853011 27.01498865 -39.76724951 23.28816471 -33.30078125 19.5703125 C-32.28701416 18.98701172 -31.27324707 18.40371094 -30.22875977 17.80273438 C-28.17896596 16.62348088 -26.12862376 15.44518036 -24.07788086 14.26757812 C-19.39793921 11.57243157 -14.73498307 8.86249533 -10.140625 6.0234375 C-9.43768311 5.59015137 -8.73474121 5.15686523 -8.01049805 4.71044922 C-6.75859667 3.93254133 -5.5121216 3.14579385 -4.27270508 2.34814453 C-2.66015625 1.34375 -2.66015625 1.34375 0 0 Z " fill="#00AF4B" transform="translate(946,693)"/>
<path d="M0 0 C68.59528908 0 68.59528908 0 77.9296875 8.82421875 C82.1015206 13.22974375 84.26203225 17.20677415 86 23 C86.18328857 23.61020996 86.36657715 24.22041992 86.55541992 24.84912109 C87.61802673 29.990014 87.27228344 35.39684703 87.3125 40.625 C87.35600586 42.47544922 87.35600586 42.47544922 87.40039062 44.36328125 C87.45982025 52.96686173 86.76472472 60.80502103 80.8125 67.4375 C77.03571634 69.53571315 73.1417051 70.80892141 69 72 C69.59167969 72.23074219 70.18335938 72.46148438 70.79296875 72.69921875 C77.49007141 75.4632758 81.9354504 78.9031756 86 85 C87.08457182 88.25371545 87.12046857 90.6089932 87.11352539 94.03198242 C87.11341209 95.89357246 87.11341209 95.89357246 87.11329651 97.79277039 C87.10818991 99.14700358 87.10297391 100.50123637 87.09765625 101.85546875 C87.09579083 103.24123585 87.09436751 104.62700361 87.09336853 106.01277161 C87.0895531 109.6574791 87.07973113 113.30214665 87.06866455 116.94683838 C87.0584295 120.66702728 87.05381162 124.38722284 87.04882812 128.10742188 C87.03863885 135.40498318 87.01906476 142.70243484 87 150 C75.12 150 63.24 150 51 150 C50.94392578 143.35617187 50.94392578 143.35617187 50.88671875 136.578125 C50.84860784 133.04465793 50.80753507 129.5112529 50.7644577 125.97784424 C50.71980958 122.24892221 50.68037188 118.52011222 50.65356445 114.79101562 C50.62753914 111.19871387 50.58714308 107.60683397 50.53681374 104.0147934 C50.52013962 102.64493816 50.50862869 101.27500994 50.50238609 99.90506744 C50.49275191 97.98509656 50.46299378 96.06525867 50.43237305 94.14550781 C50.41571846 92.50669647 50.41571846 92.50669647 50.39872742 90.83477783 C49.92872038 87.493233 49.53594441 86.23765454 47 84 C44.36 83.34 41.72 82.68 39 82 C39 104.44 39 126.88 39 150 C26.13 150 13.26 150 0 150 C0 100.5 0 51 0 0 Z " fill="#FDFDFD" transform="translate(890,1620)"/>
<path d="M0 0 C10.89 0 21.78 0 33 0 C39.6 20.13 46.2 40.26 53 61 C53.33 40.87 53.66 20.74 54 0 C64.89 0 75.78 0 87 0 C87 49.5 87 99 87 150 C75.45 150 63.9 150 52 150 C45.16964286 127.76785714 45.16964286 127.76785714 42.4375 117.8125 C39.7696385 108.16715456 36.87563565 98.58545217 34 89 C33.67 109.46 33.34 129.92 33 151 C22.11 151 11.22 151 0 151 C0 101.17 0 51.34 0 0 Z " fill="#FCFCFC" transform="translate(1373,1430)"/>
<path d="M0 0 C10.89 0 21.78 0 33 0 C36.12852703 8.74565512 39.19712925 17.45120166 41.8671875 26.34765625 C43.63139693 32.03571079 45.54370323 37.67394451 47.45092773 43.31542969 C47.73653564 44.16395508 48.02214355 45.01248047 48.31640625 45.88671875 C48.56849854 46.63139404 48.82059082 47.37606934 49.08032227 48.14331055 C50.4533074 52.40805678 51.71259333 56.70864443 53 61 C53.33 40.87 53.66 20.74 54 0 C64.89 0 75.78 0 87 0 C87 49.5 87 99 87 150 C75.78 150 64.56 150 53 150 C48.50655946 138.76639865 48.50655946 138.76639865 47.32421875 134.328125 C47.05689941 133.34424805 46.78958008 132.36037109 46.51416016 131.34667969 C46.2413623 130.32477539 45.96856445 129.30287109 45.6875 128.25 C43.09681748 118.7494081 40.28844355 109.35081183 37.22143555 99.99316406 C36.94468994 99.14463867 36.66794434 98.29611328 36.3828125 97.421875 C36.13934082 96.68549805 35.89586914 95.94912109 35.64501953 95.19042969 C34.95047899 92.83183101 34.48219746 90.41098732 34 88 C33.67 108.46 33.34 128.92 33 150 C22.11 150 11.22 150 0 150 C0 100.5 0 51 0 0 Z " fill="#FDFDFD" transform="translate(1433,1620)"/>
<path d="M0 0 C12.87 0 25.74 0 39 0 C39.33 17.49 39.66 34.98 40 53 C43.465 41.12 43.465 41.12 47 29 C48.65511491 23.99616423 50.31971559 18.99544013 52 14 C53.32 9.38 54.64 4.76 56 0 C68.21 0 80.42 0 93 0 C92.22433794 3.87831031 91.31607759 7.23963193 90.03466797 10.94848633 C89.63110077 12.12353226 89.22753357 13.29857819 88.81173706 14.50923157 C88.59659328 15.13182673 88.38144951 15.75442188 88.15978622 16.39588356 C87.01385432 19.71927729 85.8856404 23.04870402 84.75390625 26.37695312 C83.31637494 30.59987709 81.87385479 34.82092173 80.41455078 39.03637695 C79.23183221 42.45435381 78.06558313 45.87757207 76.90982437 49.30475426 C76.46845739 50.6036455 76.02114962 51.90053477 75.56762314 53.19523048 C72.15092527 62.94461261 72.15092527 62.94461261 73 73 C73.21809326 73.92200195 73.43618652 74.84400391 73.66088867 75.79394531 C73.9107251 76.63022461 74.16056152 77.46650391 74.41796875 78.328125 C74.69979004 79.28259521 74.98161133 80.23706543 75.27197266 81.22045898 C75.57409668 82.22020752 75.8762207 83.21995605 76.1875 84.25 C76.65615479 85.82793335 76.65615479 85.82793335 77.13427734 87.43774414 C78.08317291 90.62710092 79.04066694 93.81376925 80 97 C80.54066401 98.80589996 81.08104723 100.61188403 81.62109375 102.41796875 C82.608722 105.71713473 83.60011167 109.01513969 84.59375 112.3125 C86.16746162 117.54379411 87.70503321 122.78548263 89.2355957 128.02954102 C90.84680782 133.53193262 92.55206284 139.00051244 94.30078125 144.4609375 C95 147 95 147 95 150 C81.47 150 67.94 150 54 150 C52.16483515 142.56234996 50.33103879 135.12439014 48.50073242 127.68554688 C47.8778402 125.15572596 47.25414897 122.62610165 46.62963867 120.09667969 C45.73145111 116.45819833 44.83615168 112.81901663 43.94140625 109.1796875 C43.6622084 108.05134491 43.38301056 106.92300232 43.09535217 105.76046753 C42.83515793 104.69982086 42.57496368 103.63917419 42.30688477 102.54638672 C42.07816177 101.61817108 41.84943878 100.68995544 41.61378479 99.73361206 C40.96520743 96.84504441 40.48670085 93.92020512 40 91 C39.67 110.47 39.34 129.94 39 150 C26.13 150 13.26 150 0 150 C0 100.5 0 51 0 0 Z " fill="#FDFDFD" transform="translate(935,1430)"/>
<path d="M0 0 C19.14 0 38.28 0 58 0 C58.99 7.92 59.98 15.84 61 24 C61.99 28.95 61.99 28.95 63 34 C64.65856319 43.36166777 65.75095045 52.80708475 66.85913086 62.24658203 C67.53321242 67.83967421 68.39550194 73.32968143 69.54931641 78.84399414 C71.64184612 88.85435703 72.66789852 99.09964714 73.85913086 109.24658203 C74.5305201 114.81733513 75.38679109 120.28586464 76.53613281 125.77807617 C77.14502222 128.69465643 77.65166814 131.62108056 78.125 134.5625 C78.29257813 135.57441406 78.46015625 136.58632812 78.6328125 137.62890625 C79.07953109 141.7301631 79 145.87448606 79 150 C65.8 150 52.6 150 39 150 C38.34125648 140.77759073 37.89828277 132.15455036 38 123 C33.38 123 28.76 123 24 123 C23.34 131.91 22.68 140.82 22 150 C8.47 150 -5.06 150 -19 150 C-18.38339314 141.36750394 -17.72980332 132.87490637 -16.625 124.3125 C-16.42765259 122.75281494 -16.42765259 122.75281494 -16.22631836 121.16162109 C-15.44886982 115.12817593 -14.56438707 109.12473595 -13.5625 103.125 C-12.06034309 94.12105951 -11.03620401 85.06644891 -10 76 C-8.77348149 65.26923261 -7.42242711 54.58971542 -5.6484375 43.93359375 C-3.24774236 29.37034072 -1.75696036 14.64133636 0 0 Z " fill="#FCFCFC" transform="translate(1546,1620)"/>
<path d="M0 0 C7.41459942 -0.02312883 14.82919111 -0.04091785 22.24381924 -0.05181217 C25.68640348 -0.05703982 29.12896312 -0.06413531 32.5715332 -0.07543945 C36.52555043 -0.08834235 40.47955756 -0.09322918 44.43359375 -0.09765625 C46.29605995 -0.10539818 46.29605995 -0.10539818 48.19615173 -0.11329651 C49.33725906 -0.11337204 50.47836639 -0.11344757 51.65405273 -0.11352539 C52.664431 -0.115746 53.67480927 -0.11796661 54.71580505 -0.12025452 C57 0 57 0 58 1 C59.90114842 10.28106094 60.75516443 19.84322373 61.85888672 29.24438477 C62.53301937 34.83822222 63.39534917 40.32895131 64.54931641 45.84399414 C66.64184612 55.85435703 67.66789852 66.09964714 68.85913086 76.24658203 C69.53321242 81.83967421 70.39550194 87.32968143 71.54931641 92.84399414 C73.64184612 102.85435703 74.66789852 113.09964714 75.85913086 123.24658203 C76.5196076 128.72679024 77.34603328 134.072037 78.61523438 139.4465332 C79.13974354 142.92739704 79 146.4798405 79 150 C65.8 150 52.6 150 39 150 C38.29094136 140.78223766 37.90737994 132.16938613 38 123 C33.05 123 28.1 123 23 123 C23.020625 125.2275 23.04125 127.455 23.0625 129.75 C23.12619887 136.629478 22.57891581 143.05301027 22 150 C8.47 150 -5.06 150 -19 150 C-19 145.67585399 -18.97721555 141.93440399 -18.44921875 137.734375 C-18.26951538 136.29215576 -18.26951538 136.29215576 -18.08618164 134.82080078 C-17.9546167 133.80743652 -17.82305176 132.79407227 -17.6875 131.75 C-17.55142334 130.67862793 -17.41534668 129.60725586 -17.27514648 128.50341797 C-16.48052913 122.35623976 -15.58436247 116.23798973 -14.5625 110.125 C-12.9350957 100.37141634 -11.86296524 90.55425085 -10.74102783 80.73300171 C-9.70795438 71.7127242 -8.58110721 62.73381626 -7.07421875 53.77856445 C-5.86819157 46.49897784 -5.01163422 39.18376165 -4.17749023 31.85327148 C-2.95469255 21.21305316 -1.46793648 10.60861885 0 0 Z " fill="#FCFCFC" transform="translate(1347,1620)"/>
<path d="M0 0 C18.81 0 37.62 0 57 0 C62.39488984 31.02061659 62.39488984 31.02061659 63.71484375 41.765625 C63.84431396 42.81951416 63.97378418 43.87340332 64.10717773 44.95922852 C64.36226284 47.05555564 64.61331159 49.15237931 64.85961914 51.24975586 C65.53337667 56.84180595 66.39572305 62.33073815 67.54931641 67.84399414 C69.64184612 77.85435703 70.66789852 88.09964714 71.85913086 98.24658203 C72.53167754 103.82693884 73.39282661 109.30296945 74.54492188 114.80444336 C76.13118314 122.45747317 77.05980363 130.25925603 78.125 138 C78.29257813 139.216875 78.46015625 140.43375 78.6328125 141.6875 C79 145 79 145 79 150 C65.8 150 52.6 150 39 150 C38.01 136.635 38.01 136.635 37 123 C32.38 123 27.76 123 23 123 C23.04125 124.85625 23.0825 126.7125 23.125 128.625 C23.29047085 136.07118843 22.09812961 142.31309275 21 150 C7.8 150 -5.4 150 -19 150 C-17.85751457 130.57774771 -17.85751457 130.57774771 -16.5625 123.375 C-16.29294161 121.76845163 -16.0247269 120.16167726 -15.7578125 118.5546875 C-15.62793945 117.78350586 -15.49806641 117.01232422 -15.36425781 116.21777344 C-13.92181829 107.435521 -12.94751882 98.60198338 -12.0625 89.75 C-11.42637149 83.41791843 -10.60273465 77.15310637 -9.5625 70.875 C-7.82559788 60.36690675 -6.61194513 49.80856144 -5.37939453 39.23144531 C-4.75122429 33.88108414 -4.09806481 28.53394646 -3.4375 23.1875 C-3.26541016 21.76691284 -3.26541016 21.76691284 -3.08984375 20.31762695 C-2.2445921 13.49498134 -1.13284396 6.79706377 0 0 Z " fill="#FCFCFC" transform="translate(1486,1430)"/>
<path d="M0 0 C19.14 0 38.28 0 58 0 C58.99 8.415 58.99 8.415 60 17 C60.72772259 20.64529369 60.72772259 20.64529369 61.5 24.28125 C62.18428004 28.00202272 62.58432038 31.74102216 63 35.5 C63.60327182 40.93651601 64.35689571 46.24884664 65.50390625 51.6015625 C67.5929506 61.70135173 68.65768979 72.01268902 69.85913086 82.24658203 C70.53321242 87.83967421 71.39550194 93.32968143 72.54931641 98.84399414 C74.68405976 109.05630105 75.71752042 119.51214963 76.94702148 129.86181641 C77.06891846 130.86905762 77.19081543 131.87629883 77.31640625 132.9140625 C77.42412354 133.8210791 77.53184082 134.7280957 77.64282227 135.66259766 C77.95499169 138.1471327 77.95499169 138.1471327 79 141 C79 143.97 79 146.94 79 150 C65.8 150 52.6 150 39 150 C38.38950771 140.84261571 37.88745909 132.11581381 38 123 C33.05 123 28.1 123 23 123 C23.020625 125.2275 23.04125 127.455 23.0625 129.75 C23.12619887 136.629478 22.57891581 143.05301027 22 150 C8.47 150 -5.06 150 -19 150 C-17.89414115 134.51797603 -17.89414115 134.51797603 -16.6875 127.75 C-15.12348129 118.53879436 -14.05700146 109.27952021 -13 100 C-11.69796793 88.59815073 -10.20768684 77.26425846 -8.31591797 65.94384766 C-6.90313103 57.25095 -5.93775729 48.50968881 -5.0625 39.75 C-4.3249977 32.36898101 -3.30625359 25.06800507 -2.05297852 17.75683594 C-1.05145952 11.80729676 -0.55167811 6.0684592 0 0 Z " fill="#FCFCFC" transform="translate(849,1430)"/>
<path d="M0 0 C67.8863109 0 67.8863109 0 76.7109375 8.68359375 C83.07011945 16.39216309 84.46707044 25.33856945 84.3984375 35.06640625 C84.40130768 35.98534164 84.40417786 36.90427704 84.40713501 37.85105896 C84.40916089 39.77790958 84.40373537 41.70478146 84.39111328 43.6315918 C84.37501977 46.55890375 84.39102216 49.48483921 84.41015625 52.41210938 C84.40817392 54.29687801 84.40433045 56.18164579 84.3984375 58.06640625 C84.40451019 58.92915665 84.41058289 59.79190704 84.4168396 60.68080139 C84.32171151 69.00947375 82.53149026 76.28915472 76.7421875 82.49609375 C66.04520013 91.73004025 52.60320299 89 39 89 C39 109.13 39 129.26 39 150 C26.13 150 13.26 150 0 150 C0 100.5 0 51 0 0 Z " fill="#FDFDFD" transform="translate(795,1620)"/>
<path d="M0 0 C21.78 0 43.56 0 66 0 C66 9.9 66 19.8 66 30 C57.42 30 48.84 30 40 30 C40 39.24 40 48.48 40 58 C47.92 58 55.84 58 64 58 C64 67.57 64 77.14 64 87 C56.08 87 48.16 87 40 87 C40 97.56 40 108.12 40 119 C49.24 119 58.48 119 68 119 C68 129.23 68 139.46 68 150 C45.56 150 23.12 150 0 150 C0 100.5 0 51 0 0 Z " fill="#FAFAFA" transform="translate(1067,1620)"/>
<path d="M0 0 C22.77 0 45.54 0 69 0 C69 35.11453132 69 35.11453132 61.94384766 51.71875 C60.73741777 54.63465297 59.8147153 57.5953225 58.9375 60.625 C57.24625477 66.29255067 55.38321974 71.89407946 53.5 77.5 C51.25390403 84.19061133 49.08416249 90.8919971 47.04296875 97.6484375 C44.81604402 104.80462259 42.38615332 111.89577078 40 119 C49.57 119 59.14 119 69 119 C69 129.23 69 139.46 69 150 C44.91 150 20.82 150 -4 150 C-4 132.68520461 -3.7145304 123.69326574 2.05078125 108.61914062 C3.65536396 104.19168093 4.87962275 99.66401835 6.125 95.125 C7.77784242 89.19319242 9.50696989 83.3267568 11.5 77.5 C13.80385584 70.7577254 15.75948573 63.94374617 17.68603516 57.08520508 C20.25459308 47.9889901 23.11432388 39.00056122 26 30 C17.42 30 8.84 30 0 30 C0 20.1 0 10.2 0 0 Z " fill="#FBFBFB" transform="translate(989,1620)"/>
<path d="M0 0 C28.05 0 56.1 0 85 0 C85 9.9 85 19.8 85 30 C77.41 30 69.82 30 62 30 C62 69.6 62 109.2 62 150 C49.13 150 36.26 150 23 150 C23 110.73 23 71.46 23 31 C15.41 31 7.82 31 0 31 C0 20.77 0 10.54 0 0 Z " fill="#FDFDFD" transform="translate(1030,1430)"/>
<path d="M0 0 C0.62390625 0.41636719 1.2478125 0.83273437 1.890625 1.26171875 C12.55488131 9.25991098 17.36738244 22.87777111 19.41015625 35.54296875 C20.15076577 46.87999136 14.94469994 59.28508243 8 68 C7.38125 68.886875 6.7625 69.77375 6.125 70.6875 C-3.14128656 80.77140008 -16.79355534 85.90864884 -30.3125 86.5 C-41.97007887 86.18156257 -52.13431231 81.35358656 -61 74 C-61.64582031 73.46632813 -62.29164063 72.93265625 -62.95703125 72.3828125 C-71.38360102 64.70894286 -76.36128716 53.5226179 -77.31640625 42.2734375 C-77.89248003 28.79690127 -74.68249777 16.59941286 -66 6 C-47.32724663 -12.64371332 -21.65004743 -15.16271052 0 0 Z " fill="#FCFCFC" transform="translate(827,922)"/>
<path d="M0 0 C12.87 0 25.74 0 39 0 C39 49.5 39 99 39 150 C26.13 150 13.26 150 0 150 C0 100.5 0 51 0 0 Z " fill="#FEFEFE" transform="translate(1282,1620)"/>
<path d="M0 0 C8.42323295 5.11809022 14.45941282 13.23847208 17.2578125 22.734375 C19.11779103 31.77106315 16.8070162 41.19861047 12.31640625 49.14453125 C10.8785263 51.15679221 9.36971342 52.94935212 7.671875 54.74609375 C7.18203125 55.2875 6.6921875 55.82890625 6.1875 56.38671875 C-0.28868765 62.73466506 -9.49375227 65.97072404 -18.453125 66.30859375 C-28.59245938 65.80095909 -37.12480791 61.86516151 -44.328125 54.74609375 C-51.26321419 46.44523207 -54.04451555 37.86011752 -53.73046875 27.08203125 C-52.48104198 16.72270637 -47.14927762 8.47037741 -39.328125 1.74609375 C-27.57852446 -6.79286013 -12.61656046 -6.79516092 0 0 Z " fill="#FAFAFA" transform="translate(1557.328125,963.25390625)"/>
<path d="M0 0 C0.62390625 0.41636719 1.2478125 0.83273437 1.890625 1.26171875 C12.55488131 9.25991098 17.36738244 22.87777111 19.41015625 35.54296875 C20.15076577 46.87999136 14.94469994 59.28508243 8 68 C7.38125 68.886875 6.7625 69.77375 6.125 70.6875 C-3.14128656 80.77140008 -16.79355534 85.90864884 -30.3125 86.5 C-41.97007887 86.18156257 -52.13431231 81.35358656 -61 74 C-61.64582031 73.46632813 -62.29164063 72.93265625 -62.95703125 72.3828125 C-71.38360102 64.70894286 -76.36128716 53.5226179 -77.31640625 42.2734375 C-77.89248003 28.79690127 -74.68249777 16.59941286 -66 6 C-47.32724663 -12.64371332 -21.65004743 -15.16271052 0 0 Z M-62.16796875 14.48046875 C-69.36060559 24.37226142 -70.57187705 35.13219015 -69 47 C-66.22626348 58.78506234 -58.245459 67.31333736 -48.3359375 73.84375 C-38.49248218 78.71609578 -26.44841963 78.30404901 -16.0625 75.375 C-6.91123127 72.1358133 0.08727216 67.50740674 5 59 C10.20858182 47.91506945 11.99389689 36.16159667 8.82421875 24.08984375 C4.96741874 14.31075367 -2.89537748 6.91595742 -12 2 C-31.71728164 -6.30066908 -48.62681603 -1.62468922 -62.16796875 14.48046875 Z " fill="#070707" transform="translate(827,922)"/>
<path d="M0 0 C8.42323295 5.11809022 14.45941282 13.23847208 17.2578125 22.734375 C19.11779103 31.77106315 16.8070162 41.19861047 12.31640625 49.14453125 C10.8785263 51.15679221 9.36971342 52.94935212 7.671875 54.74609375 C7.18203125 55.2875 6.6921875 55.82890625 6.1875 56.38671875 C-0.28868765 62.73466506 -9.49375227 65.97072404 -18.453125 66.30859375 C-28.59245938 65.80095909 -37.12480791 61.86516151 -44.328125 54.74609375 C-51.26321419 46.44523207 -54.04451555 37.86011752 -53.73046875 27.08203125 C-52.48104198 16.72270637 -47.14927762 8.47037741 -39.328125 1.74609375 C-27.57852446 -6.79286013 -12.61656046 -6.79516092 0 0 Z M-41.95703125 13.69140625 C-46.56787657 20.60110608 -47.26843086 27.54166677 -46.328125 35.74609375 C-44.11363588 44.5813375 -41.04086082 50.21012001 -33.203125 54.99609375 C-25.45733724 59.45509323 -17.42190116 60.20368286 -8.6171875 58.09765625 C-1.02851671 54.98230719 4.89316356 49.91315768 8.671875 42.62109375 C11.54689862 35.49220866 12.04103877 28.3842179 9.85546875 20.98046875 C6.34552413 13.00665728 0.07421176 7.26919727 -7.578125 3.24609375 C-20.76872617 -1.85549764 -33.44790773 2.87645309 -41.95703125 13.69140625 Z " fill="#0A0A0A" transform="translate(1557.328125,963.25390625)"/>
<path d="M0 0 C2.5 1.5 2.5 1.5 4 3 C4.33 2.34 4.66 1.68 5 1 C6.65 1 8.3 1 10 1 C10.09927153 5.73219762 10.17165633 10.46378213 10.21972656 15.19677734 C10.23977627 16.80495774 10.26702364 18.41306583 10.30175781 20.02099609 C10.35057264 22.3397002 10.37303428 24.65743625 10.390625 26.9765625 C10.41127014 27.68930328 10.43191528 28.40204407 10.45318604 29.13638306 C10.45545024 34.23439767 9.20102199 37.07619051 6 41 C1.60467421 43.84403434 -3.93690083 43.5579402 -9 43 C-12.02286884 41.61451845 -13.66871425 40.33128575 -16 38 C-16 36.68 -16 35.36 -16 34 C-13.75 33.75 -13.75 33.75 -11 34 C-10.38125 34.66 -9.7625 35.32 -9.125 36 C-7.04996284 38.32775181 -7.04996284 38.32775181 -3.5 38.5625 C0.11172861 38.31301244 0.11172861 38.31301244 2.4375 35.75 C4.32933961 32.9475115 4.32933961 32.9475115 4 29 C3.44183594 29.32097656 2.88367187 29.64195313 2.30859375 29.97265625 C-1.68924308 31.75172746 -5.7192543 31.68686195 -10 31 C-13.40121449 28.44908913 -15.42140366 25.91217355 -17 22 C-17.65219956 16.13020395 -17.8265484 10.77554842 -15.3125 5.375 C-10.36117067 0.28985096 -6.93625282 -0.66059551 0 0 Z " fill="#F1F1F1" transform="translate(1525,1879)"/>
<path d="M0 0 C1.65 0 3.3 0 5 0 C5 13.86 5 27.72 5 42 C3.35 42 1.7 42 0 42 C-0.33 41.34 -0.66 40.68 -1 40 C-1.680625 40.495 -2.36125 40.99 -3.0625 41.5 C-6.71831169 43.36679746 -8.93308428 43.42809639 -13 43 C-16.96004058 41.60233862 -20.09027164 39.83051327 -22.3046875 36.13671875 C-24.12791615 30.53387566 -24.17815268 23.4462541 -22.26953125 17.86328125 C-20.23372467 14.56444365 -17.53977734 12.44809073 -14 11 C-8.31855814 10.16856948 -6.15273804 10.90835718 -1 14 C-0.67 9.38 -0.34 4.76 0 0 Z " fill="#F0F0F0" transform="translate(998,1868)"/>
<path d="M0 0 C4.87679522 2.39239011 7.80955604 5.71568955 11 10 C12.41145792 14.23437376 12.8892485 17.86261347 11.12890625 22.09375 C8.38128271 26.92236055 5.36251188 30.25906428 0 32 C-4.15632239 32.85373108 -7.44105456 32.81607405 -11.24609375 30.82421875 C-15.0233757 28.14200203 -18.42190337 25.43839677 -20 21 C-20.64187752 15.70247921 -20.67744743 11.43306187 -18.375 6.5625 C-12.79776886 0.54496113 -8.07942555 -1.29165368 0 0 Z " fill="#050505" transform="translate(802,944)"/>
<path d="M0 0 C4.38696891 2.27784924 7.25736001 4.90899097 10 9 C10.9874355 14.42448333 11.32361033 20.37839761 8.7890625 25.3984375 C6.24201664 28.46265003 3.69368017 30.4645046 0 32 C-5.58523668 32.45042231 -9.23153558 32.25122574 -14 29 C-18.49275108 23.17156617 -19.87674037 18.23010551 -19 11 C-17.4118773 6.70466295 -15.00192363 3.32369759 -11 1 C-7.27200105 -0.24266632 -3.87217006 -0.52902513 0 0 Z " fill="#EEEEEE" transform="translate(1099,1879)"/>
<path d="M0 0 C4.05082994 2.41946458 7.41939946 5.48838294 9 10 C9 12.64 9 15.28 9 18 C1.74 18 -5.52 18 -13 18 C-12.34 20.31 -11.68 22.62 -11 25 C-7.30930076 26.23023308 -3.83034427 26.73181374 0 26 C2.20142332 23.5609294 2.20142332 23.5609294 4 21 C6.75 20.6875 6.75 20.6875 9 21 C7.75892597 25.96429611 6.23893588 28.13871828 2 31 C-1.22532464 32.61266232 -4.50289888 32.4544969 -8 32 C-12.85559372 30.23432956 -15.76078514 27.64816611 -18 23 C-18.93406901 17.33466842 -19.36999207 11.48425229 -16.53515625 6.34375 C-11.95079286 0.99371069 -7.22115234 -1.41513425 0 0 Z " fill="#ECECEC" transform="translate(1301,1879)"/>
<path d="M0 0 C2.88258287 1.82367488 4.48467791 2.96935582 6 6 C6.53118173 9.79415519 6.85089348 13.46331178 4.953125 16.890625 C2.62635714 19.71012017 0.72989041 21.82327249 -2.98828125 22.203125 C-7.81493582 22.30046929 -11.16394014 22.27193341 -15 19 C-17.28857333 16.15901241 -17.96088363 14.23469821 -18.5625 10.625 C-17.81157392 5.7856986 -15.55075928 3.25639582 -12 0 C-8.29215915 -1.85392042 -3.95195815 -0.82021773 0 0 Z " fill="#040404" transform="translate(1545,983)"/>
<path d="M0 0 C8 0 8 0 10.47119141 1.6015625 C12.45163731 4.70854118 12.48772924 6.7019053 12.4609375 10.375 C12.45707031 11.60734375 12.45320312 12.8396875 12.44921875 14.109375 C12.42472656 15.39328125 12.40023437 16.6771875 12.375 18 C12.37371094 19.28390625 12.37242187 20.5678125 12.37109375 21.890625 C12.27126389 32.49477443 12.27126389 32.49477443 10 36 C6.45856627 38.52959552 4.78182389 38 0 38 C0 25.46 0 12.92 0 0 Z " fill="#080808" transform="translate(834,1646)"/>
<path d="M0 0 C3.39423918 1.23426879 5.32410703 2.01688296 7.375 5 C8 7 8 7 8 10 C6.02 10 4.04 10 2 10 C1.67 9.01 1.34 8.02 1 7 C-1.28705831 5.85647084 -2.59264762 5.89665561 -5.125 5.9375 C-6.40375 5.958125 -7.6825 5.97875 -9 6 C-9.33 7.65 -9.66 9.3 -10 11 C-9.19175781 11.18175781 -8.38351562 11.36351562 -7.55078125 11.55078125 C-6.48214844 11.80214844 -5.41351562 12.05351563 -4.3125 12.3125 C-3.25675781 12.55613281 -2.20101562 12.79976562 -1.11328125 13.05078125 C2.98623374 14.30069611 5.97236906 15.97236906 9 19 C9.5 22.3125 9.5 22.3125 9 26 C6.37461626 29.16495647 2.97615502 31.78319163 -1.171875 32.23828125 C-6.97794679 32.40542574 -10.48854613 32.06030848 -15 28 C-16.78229676 25.32655486 -17 24.26229641 -17 21 C-14.1875 20.6875 -14.1875 20.6875 -11 21 C-10.54625 21.825 -10.0925 22.65 -9.625 23.5 C-9.08875 24.325 -8.5525 25.15 -8 26 C-4.55402526 26.67064519 -1.18341689 26.59170845 2 25 C2.65555119 22.47266765 2.65555119 22.47266765 3 20 C1.69675781 19.76216797 1.69675781 19.76216797 0.3671875 19.51953125 C-11.90120534 17.03566201 -11.90120534 17.03566201 -16 12 C-16.6875 9 -16.6875 9 -16 6 C-11.02652852 0.11036273 -7.41413537 -0.69780098 0 0 Z " fill="#E8E8E8" transform="translate(824,1879)"/>
<path d="M0 0 C1.98 0 3.96 0 6 0 C6.33 8.25 6.66 16.5 7 25 C15.28679453 25.95906211 15.28679453 25.95906211 18.03051758 23.31152344 C19.11121448 20.73483287 19.4266283 18.80659187 19.51171875 16.015625 C19.54716797 15.08105469 19.58261719 14.14648438 19.61914062 13.18359375 C19.64169922 12.21550781 19.66425781 11.24742188 19.6875 10.25 C19.72166016 9.26644531 19.75582031 8.28289062 19.79101562 7.26953125 C19.87335273 4.84646801 19.94254838 2.42376002 20 0 C21.98 0 23.96 0 26 0 C26 9.9 26 19.8 26 30 C24.35 30 22.7 30 21 30 C20.67 29.01 20.34 28.02 20 27 C19.566875 27.474375 19.13375 27.94875 18.6875 28.4375 C16.15460657 30.7827717 14.02155837 30.99800385 10.625 31.3125 C6.36223043 30.94501986 4.94708129 30.03128361 2 27 C-0.00520734 23.78714064 -0.23704857 21.33437119 -0.1953125 17.578125 C-0.18564453 16.04091797 -0.18564453 16.04091797 -0.17578125 14.47265625 C-0.15902344 13.40917969 -0.14226562 12.34570312 -0.125 11.25 C-0.11597656 10.17105469 -0.10695313 9.09210938 -0.09765625 7.98046875 C-0.07411305 5.32008722 -0.04122799 2.66015664 0 0 Z " fill="#E3E3E3" transform="translate(1571,1880)"/>
<path d="M0 0 C0.33 0 0.66 0 1 0 C2.23747047 11.85059953 3.35929142 23.71103365 4.41952515 35.57867432 C4.55600596 37.10394313 4.69338942 38.62913146 4.83169556 40.15423584 C5.02855048 42.32915237 5.22179007 44.50436163 5.4140625 46.6796875 C5.5270166 47.94538574 5.6399707 49.21108398 5.75634766 50.51513672 C5.97693419 53.67009881 6 56.8373359 6 60 C1.71 60 -2.58 60 -7 60 C-6.85433594 58.74703125 -6.70867188 57.4940625 -6.55859375 56.203125 C-6.05828074 51.70470432 -5.66990685 47.20238236 -5.30273438 42.69140625 C-4.62858835 34.43722806 -3.8861717 26.2537322 -2.5078125 18.08203125 C-1.88356319 14.29331813 -1.37449382 10.4943565 -0.875 6.6875 C-0.62363281 4.77517578 -0.62363281 4.77517578 -0.3671875 2.82421875 C-0.24601563 1.89222656 -0.12484375 0.96023438 0 0 Z " fill="#0A0A0A" transform="translate(879,1467)"/>
<path d="M0 0 C0.33 0 0.66 0 1 0 C1.71740376 7.40102318 2.42885027 14.80260195 3.13623047 22.20458984 C3.37738325 24.72067111 3.61988091 27.23662386 3.86376953 29.75244141 C4.2148348 33.37629476 4.56100229 37.00058834 4.90625 40.625 C5.07030334 42.30203003 5.07030334 42.30203003 5.2376709 44.01293945 C5.77506771 49.70610182 6.1211519 55.28163047 6 61 C2.04 61 -1.92 61 -6 61 C-6.12684404 52.20547996 -5.73312953 43.72770086 -4.6875 35 C-4.55432373 33.84459717 -4.42114746 32.68919434 -4.28393555 31.4987793 C-3.04792886 20.9713621 -1.58382281 10.48018924 0 0 Z " fill="#0A0A0A" transform="translate(1576,1655)"/>
<path d="M0 0 C0.33 0 0.66 0 1 0 C2.83898997 20.32286613 4.56528937 40.64398804 6 61 C1.71 61 -2.58 61 -7 61 C-5.95838414 47.41787739 -4.58166426 33.89581347 -2.9375 20.375 C-2.84964233 19.64781769 -2.76178467 18.92063538 -2.67126465 18.17141724 C-1.07679858 5.02189936 -1.07679858 5.02189936 0 0 Z " fill="#090909" transform="translate(1377,1655)"/>
<path d="M0 0 C0.33 0 0.66 0 1 0 C1.55166457 6.33135292 2.10297545 12.66273656 2.65405273 18.99414062 C2.8411478 21.14323608 3.02832068 23.29232477 3.21557617 25.44140625 C5.13059758 47.42074533 5.13059758 47.42074533 6 58 C1.71 58 -2.58 58 -7 58 C-4.27275824 23.52216874 -4.27275824 23.52216874 -2.375 10.4375 C-2.19070435 9.16579956 -2.19070435 9.16579956 -2.00268555 7.8684082 C-1.14809386 2.29618773 -1.14809386 2.29618773 0 0 Z " fill="#080808" transform="translate(1516,1469)"/>
<path d="M0 0 C3.05735137 0.62999968 4.80007911 2.2002709 6.93359375 4.3984375 C8.26448485 7.06021971 8.04628368 9.08583146 8.03125 12.0625 C8.02802734 13.18398437 8.02480469 14.30546875 8.02148438 15.4609375 C8.01310547 16.6365625 8.00472656 17.8121875 7.99609375 19.0234375 C7.99158203 20.20679688 7.98707031 21.39015625 7.98242188 22.609375 C7.97060842 25.53911257 7.95413633 28.46875022 7.93359375 31.3984375 C6.28359375 31.3984375 4.63359375 31.3984375 2.93359375 31.3984375 C2.43859375 19.0234375 2.43859375 19.0234375 1.93359375 6.3984375 C-6.35320078 5.43937539 -6.35320078 5.43937539 -9.09692383 8.08691406 C-10.17762073 10.66360463 -10.49303455 12.59184563 -10.578125 15.3828125 C-10.61357422 16.31738281 -10.64902344 17.25195312 -10.68554688 18.21484375 C-10.70810547 19.18292969 -10.73066406 20.15101562 -10.75390625 21.1484375 C-10.78806641 22.13199219 -10.82222656 23.11554688 -10.85742188 24.12890625 C-10.93975898 26.55196949 -11.00895463 28.97467748 -11.06640625 31.3984375 C-13.04640625 31.3984375 -15.02640625 31.3984375 -17.06640625 31.3984375 C-17.06640625 21.4984375 -17.06640625 11.5984375 -17.06640625 1.3984375 C-15.41640625 1.3984375 -13.76640625 1.3984375 -12.06640625 1.3984375 C-11.73640625 2.3884375 -11.40640625 3.3784375 -11.06640625 4.3984375 C-10.40640625 3.7384375 -9.74640625 3.0784375 -9.06640625 2.3984375 C-5.69007054 0.14754703 -3.94994697 -0.19413728 0 0 Z " fill="#E9E9E9" transform="translate(1361.06640625,1878.6015625)"/>
<path d="M0 0 C1.65 0 3.3 0 5 0 C5.01981934 0.68626465 5.03963867 1.3725293 5.06005859 2.07958984 C5.15510945 5.17845779 5.26486847 8.27663294 5.375 11.375 C5.4059375 12.45523437 5.436875 13.53546875 5.46875 14.6484375 C5.50742187 15.6796875 5.54609375 16.7109375 5.5859375 17.7734375 C5.6173584 18.72653809 5.6487793 19.67963867 5.68115234 20.66162109 C5.78555796 23.18895176 5.78555796 23.18895176 8 25 C11.53318313 25.23042499 14.61401171 25.04184255 18 24 C18.98643638 18.87716234 19.30967053 13.82251071 19.5625 8.625 C19.60568359 7.79355469 19.64886719 6.96210937 19.69335938 6.10546875 C19.79861805 4.07046772 19.89973072 2.03525297 20 0 C21.65 0 23.3 0 25 0 C25 9.9 25 19.8 25 30 C23.35 30 21.7 30 20 30 C19.67 29.34 19.34 28.68 19 28 C18.319375 28.495 17.63875 28.99 16.9375 29.5 C13.25859625 31.37858915 11.0908775 31.50238846 7 31 C1.46153846 27.92307692 1.46153846 27.92307692 0 25 C-0.084915 23.1136088 -0.107193 21.22421485 -0.09765625 19.3359375 C-0.09443359 18.21445313 -0.09121094 17.09296875 -0.08789062 15.9375 C-0.07951172 14.761875 -0.07113281 13.58625 -0.0625 12.375 C-0.05798828 11.19164062 -0.05347656 10.00828125 -0.04882812 8.7890625 C-0.03701467 5.85932493 -0.02054258 2.92968728 0 0 Z " fill="#F3F3F3" transform="translate(915,1880)"/>
<path d="M0 0 C3.81799985 1.69688882 5.49338174 3.13976337 7 7 C7.22705078 9.65722656 7.22705078 9.65722656 7.1953125 12.640625 C7.18886719 13.71054688 7.18242188 14.78046875 7.17578125 15.8828125 C7.15902344 16.99398438 7.14226562 18.10515625 7.125 19.25 C7.11597656 20.37664062 7.10695313 21.50328125 7.09765625 22.6640625 C7.07410658 25.44292365 7.0412168 28.2213539 7 31 C5.35 31 3.7 31 2 31 C1.98018066 30.31373535 1.96036133 29.6274707 1.93994141 28.92041016 C1.84489055 25.82154221 1.73513153 22.72336706 1.625 19.625 C1.5940625 18.54476563 1.563125 17.46453125 1.53125 16.3515625 C1.49257812 15.3203125 1.45390625 14.2890625 1.4140625 13.2265625 C1.36693115 11.79691162 1.36693115 11.79691162 1.31884766 10.33837891 C1.21444204 7.81104824 1.21444204 7.81104824 -1 6 C-5.06095958 5.52786327 -5.06095958 5.52786327 -9 6 C-11.72951666 8.94559991 -12.39059039 11.01136484 -12.51171875 14.984375 C-12.54716797 15.91894531 -12.58261719 16.85351562 -12.61914062 17.81640625 C-12.64169922 18.78449219 -12.66425781 19.75257812 -12.6875 20.75 C-12.72166016 21.73355469 -12.75582031 22.71710938 -12.79101562 23.73046875 C-12.87335273 26.15353199 -12.94254838 28.57623998 -13 31 C-14.65 31 -16.3 31 -18 31 C-18 21.1 -18 11.2 -18 1 C-16.35 1 -14.7 1 -13 1 C-12.67 1.66 -12.34 2.32 -12 3 C-11.319375 2.505 -10.63875 2.01 -9.9375 1.5 C-6.29752475 -0.35871077 -4.04537127 -0.43343264 0 0 Z " fill="#F2F2F2" transform="translate(1466,1879)"/>
<path d="M0 0 C7.5 0 7.5 0 11 3 C13.57981036 10.73943109 13.19671559 23.43041875 10 31 C6.54997144 33.57960851 4.67436992 33 0 33 C0 22.11 0 11.22 0 0 Z " fill="#0C0C0C" transform="translate(929,1646)"/>
<path d="M0 0 C2.1640625 0.5859375 2.1640625 0.5859375 4.7265625 2.5234375 C6.79991676 6.94058353 6.91178136 10.79266606 6.1640625 15.5859375 C4.7265625 18.6484375 4.7265625 18.6484375 2.1640625 20.5859375 C-0.89395105 21.52859122 -3.64564313 21.90262113 -6.8359375 21.5859375 C-9.38745718 19.73608573 -10.44570465 18.3664032 -11.8359375 15.5859375 C-11.95742055 13.96427998 -12.01137402 12.33709423 -12.0234375 10.7109375 C-12.03761719 9.84726563 -12.05179688 8.98359375 -12.06640625 8.09375 C-11.81837368 5.39481937 -11.30976051 3.84808444 -9.8359375 1.5859375 C-6.08552715 -0.91433607 -4.31400102 -0.63234543 0 0 Z " fill="#070707" transform="translate(1097.8359375,1884.4140625)"/>
<path d="M0 0 C3.97245401 0.70936679 5.67231707 1.79731707 8.5 4.625 C10.22320188 8.07140377 9.8723512 11.8492282 9.5 15.625 C7.87599816 19.25967079 6.83886956 20.39908696 3.5 22.625 C0.0625 23.0625 0.0625 23.0625 -3.5 22.625 C-7.6035118 18.7374625 -8.27535816 15.64677653 -8.875 10.25 C-8.2774068 4.47326575 -6.05907768 1.08197816 0 0 Z " fill="#040404" transform="translate(988.5,1883.375)"/>
<path d="M0 0 C1.98 0 3.96 0 6 0 C6 2.97 6 5.94 6 9 C7.98 9 9.96 9 12 9 C12 10.65 12 12.3 12 14 C10.02 14 8.04 14 6 14 C6 20.6 6 27.2 6 34 C7.98 34 9.96 34 12 34 C12 35.65 12 37.3 12 39 C10.56344146 39.08131463 9.1255517 39.13933559 7.6875 39.1875 C6.48673828 39.23970703 6.48673828 39.23970703 5.26171875 39.29296875 C3 39 3 39 1.37695312 37.80078125 C-0.46614043 35.39038089 -0.3451892 33.90591028 -0.29296875 30.89453125 C-0.28330078 29.91162109 -0.27363281 28.92871094 -0.26367188 27.91601562 C-0.23853516 26.89185547 -0.21339844 25.86769531 -0.1875 24.8125 C-0.17396484 23.77673828 -0.16042969 22.74097656 -0.14648438 21.67382812 C-0.11111389 19.11536301 -0.06175544 16.5579422 0 14 C-1.65 14 -3.3 14 -5 14 C-5 12.35 -5 10.7 -5 9 C-3.35 9 -1.7 9 0 9 C0 6.03 0 3.06 0 0 Z " fill="#DFDFDF" transform="translate(869,1871)"/>
<path d="M0 0 C3.88861572 0.70702104 5.07220046 1.53191599 7.4375 4.625 C9.17098019 8.09196038 8.91449379 11.83448937 8.4375 15.625 C5.51067073 21.08841463 5.51067073 21.08841463 2.4375 22.625 C-1.24262333 23.0250134 -2.9114289 23.13529897 -5.875 20.8125 C-8.7628675 17.06896806 -8.96955401 13.49217297 -8.90234375 8.921875 C-8.12175109 3.64614528 -5.29863471 0.92958504 0 0 Z " fill="#060606" transform="translate(1521.5625,1883.375)"/>
<path d="M0 0 C1.65 0 3.3 0 5 0 C5 2.97 5 5.94 5 9 C6.98 9 8.96 9 11 9 C11 10.32 11 11.64 11 13 C9.02 13 7.04 13 5 13 C5 19.93 5 26.86 5 34 C6.98 34 8.96 34 11 34 C11 35.65 11 37.3 11 39 C3.49531634 39.3690828 3.49531634 39.3690828 1.390625 37.80078125 C-0.47022354 35.39108693 -0.34535316 33.91536581 -0.29296875 30.89453125 C-0.28330078 29.91162109 -0.27363281 28.92871094 -0.26367188 27.91601562 C-0.23853516 26.89185547 -0.21339844 25.86769531 -0.1875 24.8125 C-0.17396484 23.77673828 -0.16042969 22.74097656 -0.14648438 21.67382812 C-0.11111389 19.11536301 -0.06175544 16.5579422 0 14 C-1.65 14 -3.3 14 -5 14 C-5 12.35 -5 10.7 -5 9 C-3.35 9 -1.7 9 0 9 C0 6.03 0 3.06 0 0 Z " fill="#F0F0F0" transform="translate(1191,1871)"/>
<path d="M0 0 C0 1.98 0 3.96 0 6 C-2.97 6.66 -5.94 7.32 -9 8 C-9.76914334 11.07657338 -10.16965109 13.44405157 -10.31640625 16.546875 C-10.35830078 17.39121094 -10.40019531 18.23554687 -10.44335938 19.10546875 C-10.48267578 19.97816406 -10.52199219 20.85085938 -10.5625 21.75 C-10.62727539 23.08224609 -10.62727539 23.08224609 -10.69335938 24.44140625 C-10.79913615 26.62745963 -10.90122546 28.81362089 -11 31 C-12.98 31 -14.96 31 -17 31 C-17 21.1 -17 11.2 -17 1 C-15.02 1 -13.04 1 -11 1 C-10.67 1.99 -10.34 2.98 -10 4 C-9.278125 3.34 -8.55625 2.68 -7.8125 2 C-4.78402067 -0.1535853 -3.60296594 -0.41176754 0 0 Z " fill="#E0E0E0" transform="translate(1253,1879)"/>
<path d="M0 0 C1.65 0 3.3 0 5 0 C5 9.9 5 19.8 5 30 C3.35 30 1.7 30 0 30 C0 20.1 0 10.2 0 0 Z " fill="#FBFBFB" transform="translate(1406,1880)"/>
<path d="M0 0 C1.65 0 3.3 0 5 0 C5 9.9 5 19.8 5 30 C3.35 30 1.7 30 0 30 C0 20.1 0 10.2 0 0 Z " fill="#FBFBFB" transform="translate(1040,1880)"/>
<path d="M0 0 C3.4397297 2.53453767 3.9396658 3.75866318 5 8 C-0.61 8 -6.22 8 -12 8 C-11 3 -11 3 -9.375 1.1875 C-6.02959229 -0.48520386 -3.69013497 -0.46126687 0 0 Z " fill="#090909" transform="translate(1300,1884)"/>
<path d="M0 0 C1.65 0 3.3 0 5 0 C5 2.31 5 4.62 5 7 C3.35 7 1.7 7 0 7 C0 4.69 0 2.38 0 0 Z " fill="#E2E2E2" transform="translate(1406,1868)"/>
<path d="M0 0 C1.65 0 3.3 0 5 0 C5 2.31 5 4.62 5 7 C3.35 7 1.7 7 0 7 C0 4.69 0 2.38 0 0 Z " fill="#E2E2E2" transform="translate(1040,1868)"/>
<path d="M0 0 C0.33 0 0.66 0 1 0 C1.33 3.63 1.66 7.26 2 11 C1.67 10.34 1.34 9.68 1 9 C0.34 9 -0.32 9 -1 9 C-0.67 6.03 -0.34 3.06 0 0 Z " fill="#3F3F3F" transform="translate(879,1467)"/>
</svg>
